<?xml version="1.0" encoding="UTF-8" ?>
<!DOCTYPE svg PUBLIC "-//W3C//DTD SVG 1.1//EN" "http://www.w3.org/Graphics/SVG/1.1/DTD/svg11.dtd">
<svg width="294pt" height="495pt" viewBox="0 0 294 495" version="1.1" xmlns="http://www.w3.org/2000/svg" opacity=".02">
<path fill="#ffffff" d=" M 0.00 0.00 L 294.00 0.00 L 294.00 495.00 L 0.00 495.00 L 0.00 0.00 Z" />
<path fill="#010101" d=" M 231.81 5.71 C 232.72 5.69 234.52 5.65 235.43 5.63 C 235.70 16.53 235.53 27.45 235.51 38.36 C 234.95 38.39 233.83 38.45 233.27 38.48 L 232.32 38.53 C 231.85 36.74 231.71 34.90 231.76 33.05 C 231.83 23.94 231.73 14.82 231.81 5.71 Z" />
<path fill="#fdfdfd" d=" M 233.27 38.48 C 233.83 38.45 234.95 38.39 235.51 38.36 L 235.53 38.76 C 235.57 39.41 235.65 40.72 235.69 41.37 C 236.20 41.41 237.22 41.49 237.73 41.53 C 237.62 42.15 237.41 43.37 237.30 43.98 C 237.87 44.84 238.44 45.70 239.01 46.55 C 237.84 46.43 236.67 46.31 235.50 46.22 C 234.95 58.43 235.45 70.66 235.19 82.88 C 234.59 94.63 234.76 106.41 234.74 118.18 C 234.47 120.62 237.82 120.06 239.34 120.49 C 239.79 120.53 240.68 120.62 241.13 120.66 C 240.94 121.33 240.57 122.68 240.39 123.36 C 238.51 123.41 236.64 123.48 234.76 123.55 C 234.78 126.39 234.53 129.26 234.94 132.09 C 236.03 135.48 238.22 138.44 238.97 141.96 C 240.28 148.77 240.31 155.73 240.33 162.64 C 247.75 162.83 255.19 162.88 262.61 162.58 C 262.82 163.92 262.94 165.27 263.08 166.63 C 255.58 167.25 248.02 166.30 240.54 167.22 C 239.53 176.65 238.90 186.14 238.75 195.63 C 246.95 196.04 255.16 195.71 263.37 195.84 C 263.40 196.01 263.45 196.34 263.47 196.51 C 263.40 197.23 263.31 197.94 263.22 198.66 C 263.19 198.92 263.12 199.42 263.08 199.67 C 255.26 199.89 247.44 199.48 239.63 199.72 C 239.39 199.93 238.92 200.36 238.68 200.57 C 237.54 208.59 239.37 216.57 239.80 224.55 C 239.44 225.04 238.73 226.01 238.37 226.50 C 236.36 217.58 236.05 208.47 235.90 199.37 C 233.76 205.01 234.93 211.11 234.70 216.99 C 234.91 223.49 234.16 230.06 235.26 236.51 C 236.75 236.43 238.23 236.35 239.73 236.26 C 239.58 234.75 239.44 233.25 239.30 231.76 L 240.64 229.72 C 241.08 231.90 241.52 234.10 241.94 236.29 C 247.73 236.46 253.52 236.52 259.31 236.24 C 259.81 237.33 260.29 238.43 260.76 239.54 C 255.01 241.24 248.95 240.07 243.06 240.46 C 244.67 251.48 246.21 262.56 246.76 273.68 C 246.66 274.56 246.57 275.44 246.45 276.32 C 246.67 276.37 247.12 276.45 247.34 276.50 C 248.84 283.34 248.34 290.31 247.19 297.16 C 250.79 297.26 254.40 297.15 258.00 297.29 C 258.11 298.38 258.20 299.48 258.29 300.58 C 254.10 300.56 249.90 300.57 245.71 300.69 C 244.43 302.69 243.15 304.69 241.86 306.69 C 239.38 305.98 236.99 305.04 234.61 304.07 C 234.34 320.95 234.36 337.83 234.38 354.71 C 237.17 355.05 239.97 355.26 242.78 355.41 C 242.65 356.02 242.39 357.23 242.26 357.84 L 242.11 358.53 C 239.54 358.54 236.97 358.60 234.40 358.65 C 234.07 368.44 234.39 378.23 233.70 388.01 C 234.11 405.06 233.23 422.13 233.79 439.17 C 239.73 440.49 245.90 441.52 251.99 440.65 C 256.19 440.28 260.57 441.09 264.65 439.75 C 264.65 441.42 264.65 443.10 264.66 444.78 C 272.40 445.13 280.19 444.20 287.87 445.57 C 270.21 446.06 252.52 445.53 234.87 445.93 C 233.54 447.29 232.46 448.92 230.75 449.87 C 230.21 449.40 229.13 448.46 228.59 447.99 C 229.15 447.81 230.27 447.45 230.83 447.27 C 230.36 446.73 229.89 446.19 229.43 445.65 C 226.12 445.71 222.81 445.73 219.51 445.73 C 216.75 445.36 214.01 444.96 211.24 444.68 C 213.99 443.19 216.49 441.16 217.51 438.10 C 220.82 442.10 226.04 439.93 230.32 439.16 C 230.50 435.53 230.61 431.90 230.40 428.28 C 229.22 426.70 227.70 425.14 227.55 423.07 C 226.69 416.69 226.47 410.20 227.42 403.82 C 227.19 408.94 228.33 413.93 228.89 418.99 C 229.05 420.61 229.49 422.22 230.33 423.63 C 230.92 412.10 230.32 400.54 230.65 389.00 C 230.55 378.88 231.16 368.75 230.65 358.63 C 227.00 358.44 223.34 358.67 219.70 358.33 C 219.08 357.43 218.63 356.45 218.35 355.39 L 219.55 354.78 C 223.28 354.92 227.01 355.23 230.73 354.69 C 230.99 336.64 231.74 318.57 230.74 300.53 C 227.44 300.36 224.13 300.39 220.83 300.42 C 220.88 299.61 220.97 297.98 221.02 297.17 C 224.39 297.28 227.77 297.11 231.11 296.63 C 231.10 291.69 231.10 286.74 231.16 281.80 C 225.23 282.33 220.85 286.83 217.27 291.16 L 215.83 290.19 C 217.43 286.06 220.60 282.55 224.76 280.92 C 226.73 279.84 229.25 279.44 230.82 277.80 C 231.79 273.18 231.51 268.04 229.11 263.85 C 225.22 256.38 223.48 248.00 219.71 240.53 C 215.99 240.03 212.22 240.38 208.48 240.05 C 208.44 239.22 208.37 237.57 208.33 236.75 C 207.09 236.69 205.86 236.64 204.63 236.61 C 205.00 235.87 205.74 234.39 206.11 233.65 C 207.21 234.16 208.31 234.70 209.40 235.25 C 209.52 235.51 209.76 236.01 209.88 236.27 C 212.76 236.27 215.65 236.27 218.53 236.25 C 217.78 233.30 217.21 230.23 215.72 227.55 C 214.31 227.36 212.89 227.22 211.46 227.16 C 211.63 226.55 211.95 225.33 212.12 224.72 C 213.14 224.55 214.17 224.39 215.20 224.24 C 214.29 216.05 214.71 207.76 213.15 199.62 C 211.88 199.62 210.60 199.63 209.33 199.65 L 209.12 198.51 C 209.01 197.85 208.78 196.53 208.66 195.86 C 210.25 195.68 211.83 195.52 213.42 195.34 C 212.95 187.48 213.56 179.52 212.10 171.74 C 211.43 169.98 211.39 167.13 209.03 166.86 C 207.44 166.71 205.85 166.66 204.26 166.70 C 204.22 166.30 204.12 165.51 204.07 165.11 C 204.19 164.46 204.42 163.17 204.54 162.53 C 213.43 162.72 222.33 162.77 231.22 162.45 C 231.47 153.04 231.59 143.58 230.97 134.20 C 229.56 132.32 227.69 130.77 226.80 128.54 C 228.25 128.85 229.68 129.25 231.15 129.46 C 231.19 127.46 231.00 125.48 230.82 123.49 C 223.75 123.13 216.68 123.38 209.61 123.34 C 209.59 122.70 209.55 121.41 209.53 120.76 C 209.54 120.36 209.55 119.56 209.56 119.15 C 209.98 118.80 210.81 118.10 211.23 117.74 C 211.05 118.36 210.70 119.60 210.52 120.22 C 217.24 120.27 223.96 120.32 230.67 120.12 C 231.23 113.20 231.72 106.14 230.58 99.26 C 225.37 95.75 222.86 88.37 225.34 82.53 C 226.30 79.90 229.19 79.05 231.10 77.29 C 231.73 66.69 231.24 56.05 231.41 45.43 C 226.12 45.30 220.83 45.77 215.64 46.75 C 219.88 44.52 225.61 45.46 228.87 41.50 C 229.65 41.47 230.43 41.44 231.22 41.40 C 231.30 40.75 231.45 39.44 231.53 38.78 C 231.96 38.71 232.84 38.56 233.27 38.48 Z" />
<path fill="#000000" d=" M 25.28 107.04 C 25.39 84.26 25.39 61.48 25.48 38.70 C 40.00 38.47 54.52 38.75 69.04 38.75 C 91.20 39.81 113.42 39.12 135.61 39.53 C 135.91 59.45 135.42 79.39 135.32 99.32 C 134.64 99.36 133.28 99.43 132.60 99.46 C 133.29 99.55 134.67 99.74 135.36 99.83 C 134.53 106.38 135.51 112.90 135.26 119.47 C 132.31 119.72 129.31 119.61 126.43 120.37 C 126.42 134.02 125.96 147.71 126.69 161.34 C 131.36 161.51 136.03 161.26 140.70 161.57 C 140.85 171.28 141.46 180.97 141.47 190.68 C 145.08 191.60 148.83 191.31 152.52 191.60 C 153.47 203.35 153.85 215.19 153.64 226.95 C 149.92 230.15 145.34 232.50 141.30 235.40 C 136.42 235.46 131.54 235.24 126.67 235.57 C 125.93 244.01 126.74 252.51 125.94 260.95 C 126.77 269.82 125.99 278.73 126.50 287.61 C 133.18 288.31 139.89 288.34 146.60 288.57 C 146.91 289.66 147.12 290.77 147.24 291.90 C 147.08 309.88 147.43 327.88 146.53 345.84 C 143.31 347.52 140.23 349.44 137.13 351.33 C 137.53 351.62 138.31 352.18 138.70 352.47 C 139.18 370.67 138.26 388.87 138.46 407.07 C 138.12 418.70 138.54 430.36 137.94 441.97 C 131.93 444.47 125.73 447.48 119.06 447.30 C 91.37 447.24 63.69 446.51 35.99 446.66 C 34.04 446.47 30.55 447.08 30.82 444.11 C 30.68 429.41 30.88 414.70 30.78 400.00 C 31.49 384.54 31.50 369.05 31.70 353.56 C 34.63 353.08 37.95 354.03 40.60 352.53 C 40.96 350.71 40.82 348.84 40.85 347.00 C 40.77 330.83 40.99 314.65 40.73 298.49 C 37.91 298.12 34.83 298.17 32.46 296.39 C 28.46 293.79 24.44 291.20 20.75 288.19 C 20.53 274.45 20.86 260.72 20.75 246.98 C 20.74 240.70 20.57 234.40 21.35 228.16 C 27.93 228.07 34.51 228.38 41.08 228.19 C 43.13 226.81 41.92 224.04 42.24 221.98 C 41.91 213.23 42.84 204.38 41.73 195.69 C 35.99 194.52 30.87 191.42 25.61 188.96 C 25.33 179.33 25.05 169.67 25.50 160.04 C 27.93 161.12 30.23 162.44 32.57 163.68 C 32.55 162.99 32.50 161.61 32.47 160.92 C 27.00 156.86 21.03 153.50 15.48 149.58 C 15.32 149.28 15.01 148.67 14.86 148.37 C 14.47 136.64 15.33 124.92 15.43 113.19 C 18.44 112.57 21.54 112.64 24.60 112.54 C 25.06 110.74 25.33 108.90 25.28 107.04 Z" />
<path fill="#010101" d=" M 175.68 39.20 C 194.28 38.59 212.91 38.82 231.53 38.78 C 231.45 39.44 231.30 40.75 231.22 41.40 C 230.43 41.44 229.65 41.47 228.87 41.50 C 212.00 41.33 195.13 41.34 178.26 41.47 C 177.20 48.28 178.03 55.18 177.67 62.03 C 177.59 81.51 177.13 100.99 177.71 120.47 C 188.30 121.15 198.92 120.53 209.53 120.76 C 209.55 121.41 209.59 122.70 209.61 123.34 C 216.68 123.38 223.75 123.13 230.82 123.49 C 231.00 125.48 231.19 127.46 231.15 129.46 C 229.68 129.25 228.25 128.85 226.80 128.54 C 227.69 130.77 229.56 132.32 230.97 134.20 C 231.59 143.58 231.47 153.04 231.22 162.45 C 222.33 162.77 213.43 162.72 204.54 162.53 C 204.42 163.17 204.19 164.46 204.07 165.11 C 203.88 165.40 203.49 165.97 203.30 166.26 C 197.53 166.20 191.76 166.10 185.99 165.77 C 183.22 165.77 180.46 166.00 177.73 166.46 C 177.32 176.15 177.85 185.85 177.74 195.54 C 183.77 196.58 189.91 196.13 195.99 196.31 C 200.19 196.24 204.53 196.87 208.56 195.39 C 206.81 185.87 205.42 176.31 204.26 166.70 C 205.85 166.66 207.44 166.71 209.03 166.86 C 211.39 167.13 211.43 169.98 212.10 171.74 C 213.56 179.52 212.95 187.48 213.42 195.34 C 211.83 195.52 210.25 195.68 208.66 195.86 C 208.78 196.53 209.01 197.85 209.12 198.51 C 198.69 198.66 188.24 198.17 177.81 198.40 C 177.31 206.95 177.87 215.49 177.73 224.04 C 177.74 228.15 177.38 232.34 178.47 236.36 C 187.19 236.47 195.91 236.61 204.63 236.61 C 205.86 236.64 207.09 236.69 208.33 236.75 C 208.37 237.57 208.44 239.22 208.48 240.05 C 212.22 240.38 215.99 240.03 219.71 240.53 C 223.48 248.00 225.22 256.38 229.11 263.85 C 231.51 268.04 231.79 273.18 230.82 277.80 C 229.25 279.44 226.73 279.84 224.76 280.92 C 220.60 282.55 217.43 286.06 215.83 290.19 C 215.45 289.96 214.71 289.51 214.33 289.28 C 208.69 282.85 204.25 274.76 204.55 265.98 C 203.72 257.04 206.84 248.49 207.81 239.70 C 197.99 239.21 188.14 239.37 178.31 239.33 C 177.98 241.54 177.72 243.76 177.74 246.00 C 177.73 258.00 177.79 270.01 177.70 282.01 C 177.81 286.93 177.48 291.87 178.21 296.76 C 183.07 297.66 188.02 297.23 192.93 297.36 C 201.53 297.38 210.13 297.66 218.72 297.26 C 218.21 295.23 217.56 293.23 217.27 291.16 C 220.85 286.83 225.23 282.33 231.16 281.80 C 231.10 286.74 231.10 291.69 231.11 296.63 C 227.77 297.11 224.39 297.28 221.02 297.17 L 220.66 297.17 C 220.40 297.77 219.89 298.97 219.63 299.57 C 205.92 299.82 192.18 299.32 178.46 299.44 C 177.79 303.26 177.65 307.14 177.76 311.01 C 177.98 325.68 177.23 340.36 178.43 355.00 C 191.71 355.68 205.05 355.62 218.35 355.39 C 218.63 356.45 219.08 357.43 219.70 358.33 C 223.34 358.67 227.00 358.44 230.65 358.63 C 231.16 368.75 230.55 378.88 230.65 389.00 C 230.32 400.54 230.92 412.10 230.33 423.63 C 229.49 422.22 229.05 420.61 228.89 418.99 C 228.33 413.93 227.19 408.94 227.42 403.82 C 226.47 410.20 226.69 416.69 227.55 423.07 C 227.70 425.14 229.22 426.70 230.40 428.28 C 230.61 431.90 230.50 435.53 230.32 439.16 C 226.04 439.93 220.82 442.10 217.51 438.10 C 215.73 435.01 217.70 431.91 218.65 428.94 C 221.50 421.38 220.96 412.99 218.93 405.31 C 216.93 393.96 214.77 382.52 215.16 370.95 C 215.26 366.62 217.25 362.67 217.91 358.45 C 212.99 357.49 207.96 357.78 202.97 357.74 C 194.77 357.72 186.56 357.49 178.36 357.64 C 177.85 367.75 178.55 377.89 177.82 388.00 C 177.54 393.62 178.52 399.23 177.98 404.85 C 177.40 411.55 178.66 418.27 177.89 424.98 C 177.92 431.86 177.18 438.84 178.41 445.67 C 186.93 445.92 195.48 445.51 204.00 446.09 C 209.17 446.36 214.33 445.73 219.51 445.73 C 222.81 445.73 226.12 445.71 229.43 445.65 C 229.89 446.19 230.36 446.73 230.83 447.27 C 230.27 447.45 229.15 447.81 228.59 447.99 C 215.42 448.50 202.15 448.44 188.95 448.40 C 184.47 448.36 179.97 448.87 175.52 448.33 C 175.36 447.22 175.28 446.12 175.27 445.02 C 175.38 353.01 175.30 261.00 175.33 168.99 C 175.33 130.32 174.99 91.64 175.33 52.96 C 175.45 48.38 175.00 43.76 175.68 39.20 Z" />
<path fill="#010101" d=" M 235.53 38.76 C 253.91 38.92 272.29 38.63 290.67 38.60 C 292.11 48.63 290.85 58.87 291.28 68.99 C 290.35 73.34 291.50 77.67 291.18 82.04 C 291.40 87.72 291.17 93.40 290.87 99.07 C 291.16 103.71 291.43 108.38 290.95 113.02 C 291.58 121.99 291.05 130.99 291.25 139.97 C 291.20 159.97 291.49 179.97 291.08 199.96 C 291.48 233.64 291.28 267.32 291.27 301.01 C 291.43 346.36 291.21 391.72 291.19 437.08 C 290.95 440.82 290.66 444.57 290.72 448.33 C 283.15 448.59 275.58 448.92 268.01 448.55 C 256.81 448.84 245.60 448.74 234.39 448.73 C 233.92 450.88 233.72 453.07 233.71 455.28 C 235.26 455.73 236.81 456.18 238.37 456.64 C 238.01 458.51 237.66 460.38 237.35 462.26 C 238.85 462.46 240.36 462.66 241.87 462.86 C 239.38 470.50 236.06 477.86 232.90 485.24 C 232.45 485.27 231.54 485.32 231.09 485.35 C 228.29 477.85 224.55 470.59 222.85 462.73 C 224.19 462.62 225.54 462.51 226.88 462.42 C 226.76 460.55 226.56 458.69 226.43 456.83 C 227.70 456.65 228.98 456.47 230.26 456.28 C 230.44 454.14 230.57 452.00 230.75 449.87 C 232.46 448.92 233.54 447.29 234.87 445.93 C 252.52 445.53 270.21 446.06 287.87 445.57 C 288.80 440.44 288.28 435.21 288.39 430.03 C 288.22 406.17 288.85 382.31 288.32 358.46 C 272.97 357.83 257.59 358.52 242.26 357.84 C 242.39 357.23 242.65 356.02 242.78 355.41 C 239.97 355.26 237.17 355.05 234.38 354.71 C 234.36 337.83 234.34 320.95 234.61 304.07 C 236.99 305.04 239.38 305.98 241.86 306.69 C 243.15 304.69 244.43 302.69 245.71 300.69 C 249.90 300.57 254.10 300.56 258.29 300.58 C 256.59 310.79 252.57 320.42 249.42 330.23 C 248.27 334.78 249.26 339.67 247.39 344.08 C 246.43 347.88 243.90 351.39 243.96 355.37 C 249.61 356.02 255.30 355.61 260.97 355.71 C 270.10 355.52 279.25 356.08 288.37 355.32 C 288.73 337.03 288.69 318.71 288.33 300.41 C 278.46 299.41 268.53 300.36 258.63 300.19 C 258.94 299.24 259.26 298.29 259.60 297.35 C 269.14 297.91 278.75 297.99 288.29 297.36 C 288.59 286.91 288.65 276.45 288.42 266.00 C 288.22 257.41 288.88 248.82 288.37 240.23 C 279.16 239.24 269.85 239.73 260.60 239.83 C 260.20 250.81 262.37 261.71 261.75 272.69 C 256.79 273.41 251.76 273.30 246.76 273.68 C 246.21 262.56 244.67 251.48 243.06 240.46 C 248.95 240.07 255.01 241.24 260.76 239.54 C 260.29 238.43 259.81 237.33 259.31 236.24 C 253.52 236.52 247.73 236.46 241.94 236.29 C 241.52 234.10 241.08 231.90 240.64 229.72 C 240.62 228.99 240.60 228.26 240.59 227.54 C 246.84 227.14 253.11 227.28 259.37 227.51 C 259.54 230.22 259.71 232.93 259.76 235.65 C 260.31 236.18 260.87 236.71 261.42 237.25 C 270.37 236.74 279.39 237.84 288.28 236.38 C 288.74 224.08 288.57 211.76 288.39 199.45 C 280.25 198.91 272.05 199.10 263.90 199.18 C 263.79 198.52 263.58 197.18 263.47 196.51 C 263.45 196.34 263.40 196.01 263.37 195.84 C 255.16 195.71 246.95 196.04 238.75 195.63 C 238.90 186.14 239.53 176.65 240.54 167.22 C 248.02 166.30 255.58 167.25 263.08 166.63 C 263.34 166.66 263.87 166.73 264.13 166.76 C 265.03 176.56 264.99 186.41 264.47 196.24 C 272.46 196.41 280.56 197.08 288.48 195.75 C 288.46 186.09 288.98 176.37 288.23 166.75 C 281.15 165.86 273.94 166.52 266.80 166.43 C 265.26 167.04 263.74 165.67 263.65 164.20 C 263.81 163.97 264.14 163.50 264.30 163.27 C 272.32 163.36 280.41 163.77 288.38 162.75 C 288.74 149.66 288.40 136.55 288.34 123.46 C 281.93 122.37 275.42 123.00 268.96 122.82 C 259.96 123.02 250.92 122.38 241.94 123.25 C 242.60 125.20 243.30 127.15 243.98 129.10 C 250.72 139.93 258.55 150.35 262.61 162.58 C 255.19 162.88 247.75 162.83 240.33 162.64 C 240.31 155.73 240.28 148.77 238.97 141.96 C 238.22 138.44 236.03 135.48 234.94 132.09 C 234.53 129.26 234.78 126.39 234.76 123.55 C 236.64 123.48 238.51 123.41 240.39 123.36 C 240.57 122.68 240.94 121.33 241.13 120.66 C 249.40 120.99 257.69 120.84 265.97 120.91 C 273.43 120.97 280.95 121.64 288.37 120.56 C 288.39 95.01 288.48 69.45 288.33 43.91 C 288.51 40.90 284.94 41.51 282.97 41.43 C 267.89 41.83 252.81 41.69 237.73 41.53 C 237.22 41.49 236.20 41.41 235.69 41.37 C 235.65 40.72 235.57 39.41 235.53 38.76 Z" />
<path fill="#ffffff" d=" M 178.26 41.47 C 195.13 41.34 212.00 41.33 228.87 41.50 C 225.61 45.46 219.88 44.52 215.64 46.75 C 208.68 49.53 203.89 56.02 200.60 62.51 C 198.08 66.84 195.77 71.74 196.40 76.89 C 196.96 80.93 197.64 85.01 199.14 88.82 C 202.04 95.50 209.20 99.03 212.32 105.55 C 213.55 109.58 212.53 113.86 211.23 117.74 C 210.81 118.10 209.98 118.80 209.56 119.15 C 209.55 119.56 209.54 120.36 209.53 120.76 C 198.92 120.53 188.30 121.15 177.71 120.47 C 177.13 100.99 177.59 81.51 177.67 62.03 C 178.03 55.18 177.20 48.28 178.26 41.47 Z" />
<path fill="#ffffff" d=" M 29.26 81.00 C 29.36 67.92 29.02 54.84 29.48 41.76 C 43.08 41.97 56.73 41.84 70.30 42.78 C 65.65 45.07 60.16 44.13 55.49 46.42 C 47.13 51.37 43.08 60.83 40.90 69.89 C 39.78 76.94 40.51 84.17 42.37 91.03 C 44.47 97.90 49.87 103.61 50.18 111.03 C 49.76 112.85 49.12 114.60 48.50 116.36 C 60.87 116.87 73.28 116.61 85.67 116.77 C 85.62 117.81 85.58 118.84 85.54 119.87 C 96.69 119.85 107.84 119.71 119.00 119.72 C 120.49 119.66 121.93 120.14 123.36 120.51 C 123.38 130.36 123.27 140.20 123.39 150.05 C 123.19 153.84 123.82 157.77 122.58 161.43 C 116.45 161.48 110.33 161.41 104.21 161.40 C 104.21 162.19 104.19 163.76 104.18 164.54 C 99.00 165.15 93.74 164.31 88.60 165.35 C 88.68 174.28 88.31 183.24 88.95 192.16 C 91.90 194.09 95.71 192.92 99.04 193.22 C 102.80 192.91 106.84 193.80 110.42 192.69 C 110.18 190.13 109.50 187.65 109.01 185.13 C 108.68 183.50 108.35 181.87 107.83 180.29 C 107.82 175.31 106.07 170.63 104.91 165.86 C 105.03 165.51 105.26 164.82 105.38 164.48 C 116.14 163.96 126.93 164.32 137.69 164.34 C 138.60 173.88 138.58 183.53 138.32 193.10 C 129.57 194.57 120.50 192.81 111.63 193.61 C 111.19 194.47 110.74 195.33 110.30 196.20 C 103.23 196.48 96.15 196.23 89.07 196.39 C 89.20 201.28 90.30 206.06 90.96 210.89 C 92.33 221.68 96.94 231.71 101.79 241.32 C 103.97 242.97 106.44 244.22 108.59 245.92 C 108.13 247.74 107.57 249.54 107.10 251.36 C 108.78 250.59 110.09 247.93 112.13 248.77 C 112.27 249.42 112.54 250.74 112.68 251.39 C 111.68 251.60 110.69 251.81 109.69 252.03 C 109.21 253.34 108.71 254.65 108.26 255.98 C 109.11 254.91 109.89 253.82 110.71 252.74 C 111.78 252.27 112.82 251.75 113.83 251.16 C 113.75 249.37 113.67 247.58 113.54 245.79 C 116.47 242.66 119.17 239.11 123.16 237.25 C 123.22 240.16 123.52 243.11 123.08 246.00 C 122.02 248.50 119.62 250.07 117.75 251.93 C 114.34 254.62 111.40 257.84 107.89 260.39 C 101.78 246.26 92.82 233.19 89.81 217.88 C 87.91 210.88 86.43 203.73 86.22 196.46 C 80.19 196.22 74.15 196.33 68.11 196.38 C 67.77 209.30 72.69 221.49 76.93 233.45 C 69.90 233.93 62.83 233.76 55.78 233.50 C 56.24 231.86 56.82 230.27 57.50 228.72 C 56.83 227.75 56.12 226.81 55.38 225.89 C 55.12 224.28 55.74 222.82 56.43 221.41 C 62.29 221.15 66.68 225.46 72.00 227.08 C 68.99 217.06 66.56 206.86 65.07 196.49 C 60.91 195.97 56.70 196.15 52.52 196.19 C 54.42 203.33 57.23 210.46 56.75 217.99 C 56.65 220.57 55.14 222.76 54.34 225.14 C 54.63 226.42 55.11 227.65 55.50 228.90 C 54.00 230.28 52.70 231.86 51.37 233.40 C 49.82 233.95 48.06 233.76 46.45 233.52 C 45.16 232.35 45.62 230.54 45.51 229.02 C 45.65 217.90 45.32 206.76 45.70 195.65 C 47.56 195.53 49.42 195.45 51.29 195.42 C 51.54 194.89 52.05 193.84 52.31 193.32 C 56.39 192.90 60.54 193.61 64.59 192.68 C 64.38 185.88 63.77 179.10 63.64 172.30 C 64.03 172.34 64.81 172.42 65.20 172.46 C 67.45 178.92 67.65 185.80 67.70 192.57 C 73.65 193.60 79.86 193.52 85.83 192.62 C 85.54 187.71 84.70 182.84 84.79 177.92 C 84.74 173.85 85.72 169.80 85.25 165.73 C 84.98 165.53 84.46 165.12 84.19 164.91 C 77.14 164.42 70.07 164.87 63.01 164.67 C 55.81 164.77 48.61 164.31 41.42 164.77 C 43.64 173.83 47.83 182.24 50.64 191.11 C 50.68 191.57 50.76 192.48 50.79 192.94 C 46.78 194.12 42.50 193.11 38.39 193.19 C 37.81 183.59 37.16 173.90 38.25 164.31 C 38.88 164.30 40.12 164.28 40.74 164.27 C 40.74 163.40 40.73 161.65 40.73 160.78 C 55.59 160.36 70.49 161.24 85.33 160.56 C 85.76 155.32 86.45 149.75 84.23 144.80 C 82.76 140.88 80.35 137.42 77.53 134.36 C 76.15 133.31 76.62 131.54 76.56 130.07 C 82.50 133.28 83.91 140.34 87.32 145.60 C 86.87 150.69 88.54 155.64 88.65 160.71 C 93.41 160.96 98.19 160.76 102.96 160.84 C 99.13 149.24 93.56 138.24 86.99 127.95 C 85.94 125.58 85.20 123.07 85.01 120.47 C 74.34 120.38 63.67 120.31 53.00 120.14 C 51.06 120.21 49.12 120.12 47.20 119.84 C 47.28 119.18 47.44 117.85 47.52 117.18 C 41.97 117.24 36.43 116.41 30.89 116.97 C 30.50 116.86 29.72 116.64 29.32 116.53 C 28.83 104.70 29.39 92.84 29.26 81.00 Z" />
<path fill="#fefefe" d=" M 74.69 43.11 C 77.60 41.82 80.90 42.52 83.99 42.26 C 98.18 42.41 112.39 41.93 126.57 42.57 C 127.23 49.38 126.56 56.23 126.75 63.06 C 126.94 80.89 126.01 98.70 126.43 116.52 C 123.84 118.00 120.82 117.34 117.98 117.47 C 108.03 117.59 98.07 117.30 88.12 117.34 C 88.16 114.64 91.29 115.47 92.99 115.28 C 97.22 115.72 101.75 116.20 105.29 113.33 C 107.77 110.62 110.15 107.62 110.62 103.84 C 111.14 100.99 114.54 100.51 116.61 99.14 C 113.37 92.90 113.93 85.68 115.30 79.02 C 115.55 74.17 116.64 68.87 114.66 64.29 C 108.13 55.50 98.27 49.61 88.03 46.09 C 83.66 44.78 79.03 44.58 74.69 43.11 Z" />
<path fill="#ffffff" d=" M 237.73 41.53 C 252.81 41.69 267.89 41.83 282.97 41.43 C 284.94 41.51 288.51 40.90 288.33 43.91 C 288.48 69.45 288.39 95.01 288.37 120.56 C 280.95 121.64 273.43 120.97 265.97 120.91 C 257.69 120.84 249.40 120.99 241.13 120.66 C 240.68 120.62 239.79 120.53 239.34 120.49 C 239.41 117.90 239.46 115.32 239.64 112.74 C 245.76 107.52 254.16 113.66 260.82 110.19 C 263.80 108.00 264.87 104.39 265.13 100.88 C 265.12 97.89 267.74 96.24 269.63 94.38 C 268.11 91.84 266.33 89.26 266.17 86.21 C 265.62 81.11 267.07 76.07 266.73 70.97 C 266.45 67.08 267.55 62.70 265.06 59.30 C 261.99 55.47 258.37 51.52 253.39 50.35 C 248.59 49.12 243.90 47.42 239.01 46.55 C 238.44 45.70 237.87 44.84 237.30 43.98 C 237.41 43.37 237.62 42.15 237.73 41.53 Z" />
<path fill="#000000" d=" M 215.64 46.75 C 220.83 45.77 226.12 45.30 231.41 45.43 C 231.24 56.05 231.73 66.69 231.10 77.29 C 229.19 79.05 226.30 79.90 225.34 82.53 C 222.86 88.37 225.37 95.75 230.58 99.26 C 231.72 106.14 231.23 113.20 230.67 120.12 C 223.96 120.32 217.24 120.27 210.52 120.22 C 210.70 119.60 211.05 118.36 211.23 117.74 C 212.53 113.86 213.55 109.58 212.32 105.55 C 209.20 99.03 202.04 95.50 199.14 88.82 C 197.64 85.01 196.96 80.93 196.40 76.89 C 195.77 71.74 198.08 66.84 200.60 62.51 C 203.89 56.02 208.68 49.53 215.64 46.75 Z" />
<path fill="#000000" d=" M 235.50 46.22 C 236.67 46.31 237.84 46.43 239.01 46.55 C 243.90 47.42 248.59 49.12 253.39 50.35 C 258.37 51.52 261.99 55.47 265.06 59.30 C 267.55 62.70 266.45 67.08 266.73 70.97 C 267.07 76.07 265.62 81.11 266.17 86.21 C 266.33 89.26 268.11 91.84 269.63 94.38 C 267.74 96.24 265.12 97.89 265.13 100.88 C 264.87 104.39 263.80 108.00 260.82 110.19 C 254.16 113.66 245.76 107.52 239.64 112.74 C 239.46 115.32 239.41 117.90 239.34 120.49 C 237.82 120.06 234.47 120.62 234.74 118.18 C 234.76 106.41 234.59 94.63 235.19 82.88 C 235.45 70.66 234.95 58.43 235.50 46.22 Z" />
<path fill="#020202" d=" M 226.77 89.87 C 226.39 86.83 227.57 82.36 231.28 82.32 C 231.36 86.29 231.44 90.27 231.11 94.23 C 228.59 95.54 227.11 91.87 226.77 89.87 Z" />
<path fill="#fefefe" d=" M 33.49 160.60 C 33.31 146.88 33.31 133.14 33.49 119.42 C 37.59 119.52 41.78 119.22 45.79 120.27 C 44.08 124.48 42.17 128.64 41.00 133.05 C 38.89 142.09 39.74 151.42 39.71 160.60 C 37.66 161.09 35.55 160.80 33.49 160.60 Z" />
<path fill="#ffffff" d=" M 177.90 122.87 C 188.04 122.46 198.22 122.71 208.37 122.77 C 208.54 127.99 206.95 133.03 206.15 138.14 C 204.28 146.39 204.06 154.87 203.54 163.27 C 194.95 162.95 186.21 164.15 177.73 162.55 C 177.75 149.33 177.12 136.04 177.90 122.87 Z" />
<path fill="#ffffff" d=" M 241.94 123.25 C 250.92 122.38 259.96 123.02 268.96 122.82 C 275.42 123.00 281.93 122.37 288.34 123.46 C 288.40 136.55 288.74 149.66 288.38 162.75 C 280.41 163.77 272.32 163.36 264.30 163.27 C 264.14 163.50 263.81 163.97 263.65 164.20 C 263.74 165.67 265.26 167.04 266.80 166.43 C 273.94 166.52 281.15 165.86 288.23 166.75 C 288.98 176.37 288.46 186.09 288.48 195.75 C 280.56 197.08 272.46 196.41 264.47 196.24 C 264.99 186.41 265.03 176.56 264.13 166.76 C 263.87 166.73 263.34 166.66 263.08 166.63 C 262.94 165.27 262.82 163.92 262.61 162.58 C 258.55 150.35 250.72 139.93 243.98 129.10 C 243.30 127.15 242.60 125.20 241.94 123.25 Z" />
<path fill="#020202" d=" M 235.72 139.87 C 238.46 147.12 239.02 154.93 238.77 162.61 C 237.64 162.67 236.52 162.73 235.40 162.79 C 234.28 156.52 235.01 150.13 234.82 143.80 C 235.12 142.49 235.42 141.18 235.72 139.87 Z" />
<path fill="#ffffff" d=" M 203.30 166.26 C 203.49 165.97 203.88 165.40 204.07 165.11 C 204.12 165.51 204.22 166.30 204.26 166.70 C 205.42 176.31 206.81 185.87 208.56 195.39 C 204.53 196.87 200.19 196.24 195.99 196.31 C 189.91 196.13 183.77 196.58 177.74 195.54 C 177.85 185.85 177.32 176.15 177.73 166.46 C 180.46 166.00 183.22 165.77 185.99 165.77 C 191.76 166.10 197.53 166.20 203.30 166.26 Z" />
<path fill="#010101" d=" M 213.35 166.99 C 219.29 166.59 225.34 166.34 231.23 167.39 C 231.10 176.83 231.91 186.33 230.78 195.72 C 225.68 195.75 220.58 195.96 215.50 195.47 C 215.11 185.95 215.40 176.36 213.35 166.99 Z" />
<path fill="#000000" d=" M 235.48 167.13 C 236.23 167.13 237.72 167.14 238.47 167.14 C 238.67 176.77 237.28 186.33 236.37 195.90 C 235.95 195.73 235.12 195.40 234.70 195.23 C 234.80 186.81 234.85 178.39 234.82 169.96 C 234.99 169.25 235.32 167.84 235.48 167.13 Z" />
<path fill="#fefefe" d=" M 142.41 193.49 C 144.27 193.42 146.14 193.45 147.99 193.75 C 145.81 195.57 143.70 197.73 140.99 198.73 C 135.46 198.53 130.00 197.37 124.46 197.12 C 124.46 196.75 124.44 195.99 124.44 195.62 C 129.95 195.55 135.50 195.78 140.98 195.23 C 141.34 194.79 142.05 193.93 142.41 193.49 Z" />
<path fill="#ffffff" d=" M 263.22 198.66 C 263.31 197.94 263.40 197.23 263.47 196.51 C 263.58 197.18 263.79 198.52 263.90 199.18 C 272.05 199.10 280.25 198.91 288.39 199.45 C 288.57 211.76 288.74 224.08 288.28 236.38 C 279.39 237.84 270.37 236.74 261.42 237.25 C 260.87 236.71 260.31 236.18 259.76 235.65 C 259.71 232.93 259.54 230.22 259.37 227.51 C 253.11 227.28 246.84 227.14 240.59 227.54 C 240.60 228.26 240.62 228.99 240.64 229.72 L 239.30 231.76 C 238.98 230.00 238.64 228.26 238.37 226.50 C 238.73 226.01 239.44 225.04 239.80 224.55 C 246.34 224.65 252.90 224.87 259.44 224.41 C 260.56 216.15 261.92 207.92 263.08 199.67 C 263.12 199.42 263.19 198.92 263.22 198.66 Z" />
<path fill="#ffffff" d=" M 177.81 198.40 C 188.24 198.17 198.69 198.66 209.12 198.51 L 209.33 199.65 C 210.94 207.93 211.69 216.32 212.12 224.72 C 211.95 225.33 211.63 226.55 211.46 227.16 C 210.76 229.85 209.96 232.52 209.40 235.25 C 208.31 234.70 207.21 234.16 206.11 233.65 C 205.74 234.39 205.00 235.87 204.63 236.61 C 195.91 236.61 187.19 236.47 178.47 236.36 C 177.38 232.34 177.74 228.15 177.73 224.04 C 177.87 215.49 177.31 206.95 177.81 198.40 Z" />
<path fill="#ffffff" d=" M 112.20 198.90 C 119.48 198.73 126.73 200.40 134.03 200.71 C 136.09 201.18 138.93 200.81 140.37 202.56 C 140.82 212.84 141.12 223.17 140.72 233.47 C 132.35 234.04 123.95 233.61 115.57 233.56 C 115.28 231.70 116.03 229.40 114.61 227.92 C 115.33 227.11 115.61 226.16 115.45 225.07 C 115.20 216.25 112.52 207.70 112.20 198.90 Z" />
<path fill="#040404" d=" M 209.33 199.65 C 210.60 199.63 211.88 199.62 213.15 199.62 C 214.71 207.76 214.29 216.05 215.20 224.24 C 214.17 224.39 213.14 224.55 212.12 224.72 C 211.69 216.32 210.94 207.93 209.33 199.65 Z" />
<path fill="#010101" d=" M 215.63 199.65 C 220.61 199.53 225.59 199.65 230.58 199.55 C 230.97 200.99 231.30 202.45 231.23 203.97 C 231.25 211.97 231.23 219.97 231.39 227.97 C 231.40 230.75 231.38 233.58 230.58 236.27 C 227.45 236.10 224.08 237.00 221.09 235.89 C 219.45 232.35 218.79 228.38 218.49 224.51 C 218.82 224.15 219.47 223.42 219.80 223.06 C 217.83 218.89 215.75 214.53 216.24 209.78 C 214.96 206.56 215.66 203.01 215.63 199.65 Z" />
<path fill="#030303" d=" M 235.90 199.37 C 236.05 208.47 236.36 217.58 238.37 226.50 C 238.64 228.26 238.98 230.00 239.30 231.76 C 239.44 233.25 239.58 234.75 239.73 236.26 C 238.23 236.35 236.75 236.43 235.26 236.51 C 234.16 230.06 234.91 223.49 234.70 216.99 C 234.93 211.11 233.76 205.01 235.90 199.37 Z" />
<path fill="#010101" d=" M 238.68 200.57 C 238.92 200.36 239.39 199.93 239.63 199.72 C 247.44 199.48 255.26 199.89 263.08 199.67 C 261.92 207.92 260.56 216.15 259.44 224.41 C 252.90 224.87 246.34 224.65 239.80 224.55 C 239.37 216.57 237.54 208.59 238.68 200.57 Z" />
<path fill="#030303" d=" M 209.40 235.25 C 209.96 232.52 210.76 229.85 211.46 227.16 C 212.89 227.22 214.31 227.36 215.72 227.55 C 217.21 230.23 217.78 233.30 218.53 236.25 C 215.65 236.27 212.76 236.27 209.88 236.27 C 209.76 236.01 209.52 235.51 209.40 235.25 Z" />
<path fill="#494949" d=" M 41.28 231.10 C 42.90 230.61 43.44 231.18 42.91 232.82 C 41.30 233.30 40.75 232.73 41.28 231.10 Z" />
<path fill="#f9f9f9" d=" M 36.75 236.82 C 37.31 236.54 38.41 235.97 38.96 235.69 C 40.73 235.74 42.51 235.88 44.12 236.69 C 41.79 238.88 39.72 241.47 36.78 242.89 C 36.71 240.86 36.71 238.84 36.75 236.82 Z" />
<path fill="#fdfdfd" d=" M 36.65 245.63 C 40.00 242.07 43.35 238.04 47.76 235.86 C 48.31 236.02 49.43 236.34 49.99 236.49 C 48.63 239.31 47.60 242.37 45.62 244.83 C 42.76 247.55 39.93 250.33 36.80 252.75 C 36.72 250.37 36.70 248.00 36.65 245.63 Z" />
<path fill="#292929" d=" M 52.32 236.13 C 55.35 234.70 52.32 239.48 52.32 236.13 Z" />
<path fill="#fcfcfc" d=" M 48.84 243.73 C 51.27 240.75 54.05 238.09 56.82 235.45 C 59.86 235.36 62.92 235.33 65.95 235.65 C 63.64 239.34 60.08 241.94 57.02 244.96 C 52.96 248.49 49.96 253.33 44.91 255.61 C 45.65 251.47 47.70 247.75 48.84 243.73 Z" />
<path fill="#fdfdfd" d=" M 44.39 257.59 C 52.84 250.90 59.85 242.67 67.83 235.48 C 70.82 235.37 73.82 235.31 76.78 235.78 C 72.85 241.40 67.01 245.36 62.41 250.42 C 56.36 255.79 50.75 261.64 44.57 266.85 C 43.42 263.91 43.49 260.58 44.39 257.59 Z" />
<path fill="#fdfdfd" d=" M 113.26 244.02 C 113.62 241.05 114.26 238.12 115.36 235.34 C 117.38 235.83 120.85 234.28 121.66 237.00 C 118.73 239.19 116.37 242.06 113.26 244.02 Z" />
<path fill="#fcfcfc" d=" M 58.61 255.70 C 65.23 249.67 71.31 243.06 78.07 237.18 C 80.76 236.88 82.95 241.75 80.40 243.45 C 72.25 251.65 63.70 259.43 55.16 267.20 C 51.82 270.29 48.96 274.07 44.79 276.12 C 44.36 273.65 44.15 271.13 44.43 268.63 C 49.14 264.30 53.91 260.03 58.61 255.70 Z" />
<path fill="#ffffff" d=" M 178.31 239.33 C 188.14 239.37 197.99 239.21 207.81 239.70 C 206.84 248.49 203.72 257.04 204.55 265.98 C 204.25 274.76 208.69 282.85 214.33 289.28 C 214.71 289.51 215.45 289.96 215.83 290.19 L 217.27 291.16 C 217.56 293.23 218.21 295.23 218.72 297.26 C 210.13 297.66 201.53 297.38 192.93 297.36 C 188.02 297.23 183.07 297.66 178.21 296.76 C 177.48 291.87 177.81 286.93 177.70 282.01 C 177.79 270.01 177.73 258.00 177.74 246.00 C 177.72 243.76 177.98 241.54 178.31 239.33 Z" />
<path fill="#030303" d=" M 222.84 240.41 C 224.37 240.42 225.90 240.44 227.43 240.47 C 228.38 246.34 231.44 251.76 231.41 257.78 C 231.07 257.73 230.38 257.62 230.04 257.56 C 227.63 251.85 224.90 246.26 222.84 240.41 Z" />
<path fill="#010101" d=" M 234.81 240.93 C 236.51 240.03 238.59 240.58 240.46 240.42 C 243.61 254.43 245.37 268.72 246.47 283.02 C 246.60 287.58 246.97 292.22 245.29 296.57 C 242.56 297.16 239.70 297.61 236.98 296.73 C 237.22 293.60 236.09 290.79 234.70 288.07 C 234.36 272.37 234.54 256.63 234.81 240.93 Z" />
<path fill="#ffffff" d=" M 260.60 239.83 C 269.85 239.73 279.16 239.24 288.37 240.23 C 288.88 248.82 288.22 257.41 288.42 266.00 C 288.65 276.45 288.59 286.91 288.29 297.36 C 278.75 297.99 269.14 297.91 259.60 297.35 C 259.26 298.29 258.94 299.24 258.63 300.19 C 268.53 300.36 278.46 299.41 288.33 300.41 C 288.69 318.71 288.73 337.03 288.37 355.32 C 279.25 356.08 270.10 355.52 260.97 355.71 C 255.30 355.61 249.61 356.02 243.96 355.37 C 243.90 351.39 246.43 347.88 247.39 344.08 C 249.26 339.67 248.27 334.78 249.42 330.23 C 252.57 320.42 256.59 310.79 258.29 300.58 C 258.20 299.48 258.11 298.38 258.00 297.29 C 258.33 297.00 259.00 296.41 259.33 296.12 C 259.39 289.54 260.94 283.10 261.35 276.54 C 256.69 276.03 252.01 276.28 247.34 276.50 C 247.12 276.45 246.67 276.37 246.45 276.32 C 246.57 275.44 246.66 274.56 246.76 273.68 C 251.76 273.30 256.79 273.41 261.75 272.69 C 262.37 261.71 260.20 250.81 260.60 239.83 Z" />
<path fill="#fcfcfc" d=" M 45.31 278.15 C 57.82 266.65 70.10 254.91 82.51 243.31 C 83.31 245.28 86.12 247.76 84.05 249.75 C 75.84 258.29 66.95 266.18 58.03 273.96 C 54.73 277.67 51.03 281.03 46.90 283.80 C 46.33 281.93 45.77 280.05 45.31 278.15 Z" />
<path fill="#fcfcfc" d=" M 36.65 255.20 C 38.60 252.22 41.27 249.50 44.57 248.04 C 43.86 251.42 42.86 254.74 42.52 258.19 C 40.82 260.18 39.08 262.28 36.58 263.31 C 36.42 260.61 36.18 257.88 36.65 255.20 Z" />
<path fill="#fbfbfb" d=" M 85.47 249.61 C 87.29 250.88 88.21 252.94 89.32 254.79 C 88.03 256.31 86.73 257.83 85.26 259.18 C 79.28 264.55 73.90 270.55 67.71 275.68 C 61.82 280.70 56.66 286.48 50.81 291.52 C 48.46 290.75 48.62 287.73 47.62 285.85 C 47.91 285.36 48.47 284.39 48.76 283.90 C 61.14 272.63 73.22 261.03 85.47 249.61 Z" />
<path fill="#fcfcfc" d=" M 121.24 249.95 C 121.73 249.72 122.73 249.25 123.22 249.01 C 123.30 251.71 123.19 254.43 122.76 257.11 C 118.58 260.79 114.93 265.29 110.02 267.98 C 109.44 265.95 108.87 263.92 108.37 261.88 C 112.24 257.47 116.86 253.82 121.24 249.95 Z" />
<path fill="#353535" d=" M 256.12 252.04 C 257.74 251.51 258.29 252.06 257.79 253.70 C 256.17 254.23 255.61 253.68 256.12 252.04 Z" />
<path fill="#ffffff" d=" M 78.50 266.46 C 81.91 262.91 85.75 259.80 89.09 256.20 C 91.70 257.60 92.16 260.90 92.52 263.56 C 90.08 267.32 86.43 270.14 83.36 273.39 C 77.99 277.73 73.44 282.97 68.11 287.35 C 64.40 291.20 57.98 290.51 54.79 295.09 C 68.35 295.37 81.91 295.33 95.46 295.22 C 96.22 293.80 96.94 292.37 97.66 290.94 C 100.53 291.45 102.88 293.22 104.97 295.15 C 102.55 295.46 100.11 295.69 97.67 295.88 C 97.59 296.68 97.53 297.49 97.46 298.30 C 108.81 298.55 120.17 298.02 131.52 298.53 C 132.43 300.94 132.22 303.49 131.94 305.99 C 131.58 321.74 132.23 337.55 131.38 353.28 C 118.43 353.56 105.45 353.60 92.49 353.30 C 95.86 344.63 100.10 335.60 98.60 326.06 C 97.47 320.29 97.08 314.32 94.96 308.80 C 93.16 315.45 90.95 322.08 90.43 328.99 C 90.53 332.03 92.05 334.99 91.19 338.04 C 90.55 341.01 90.57 344.22 89.00 346.91 C 87.90 348.75 86.77 350.57 85.84 352.51 C 87.82 352.65 89.80 352.92 91.72 353.47 C 91.34 354.20 90.60 355.66 90.22 356.39 C 102.29 356.94 114.38 356.27 126.45 356.72 C 126.90 361.14 126.77 365.59 126.62 370.03 C 126.09 392.34 126.53 414.66 126.21 436.97 C 125.95 439.27 126.21 441.90 124.95 443.93 C 122.48 445.05 119.65 444.51 117.02 444.72 C 89.60 444.50 62.19 444.53 34.77 444.15 C 34.48 443.72 33.90 442.86 33.61 442.43 C 33.90 413.80 33.24 385.14 34.57 356.55 C 41.72 356.61 48.87 356.56 56.02 356.50 C 55.94 355.70 55.78 354.08 55.70 353.28 C 52.00 353.40 48.29 353.38 44.60 353.26 C 44.08 348.19 44.43 343.08 44.34 338.00 C 44.42 324.82 44.15 311.64 44.48 298.48 C 46.35 298.30 48.22 298.20 50.10 298.17 C 50.09 296.52 50.36 294.90 50.69 293.29 C 51.39 292.46 52.08 291.60 52.75 290.74 C 55.56 288.20 58.50 285.77 61.04 282.96 C 66.54 277.11 72.95 272.24 78.50 266.46 Z" />
<path fill="#fdfdfd" d=" M 111.77 268.84 C 115.10 265.20 118.81 261.88 122.73 258.88 C 122.89 261.92 122.89 264.98 122.62 268.02 C 119.15 270.76 116.22 274.12 112.70 276.80 C 112.44 276.79 111.92 276.78 111.66 276.77 C 111.35 274.20 109.62 271.01 111.77 268.84 Z" />
<path fill="#fefefe" d=" M 36.50 265.69 C 38.04 263.56 39.97 261.75 42.10 260.23 C 42.17 262.55 42.29 264.88 42.17 267.20 C 42.00 270.33 38.87 271.73 36.73 273.43 C 36.54 270.86 36.52 268.27 36.50 265.69 Z" />
<path fill="#fdfdfd" d=" M 73.02 283.97 C 79.08 277.62 85.93 272.13 92.26 266.07 C 92.62 268.72 93.30 271.35 93.27 274.03 C 90.92 277.09 87.97 279.62 85.17 282.25 C 82.66 284.13 80.52 286.44 78.74 289.01 C 78.99 288.28 79.50 286.84 79.75 286.11 C 76.54 286.98 73.28 287.61 70.04 288.35 C 70.17 286.40 71.83 285.27 73.02 283.97 Z" />
<path fill="#fcfcfc" d=" M 112.19 279.16 C 115.11 275.45 118.98 272.56 122.74 269.73 C 122.64 273.27 123.35 277.03 122.44 280.44 C 119.31 283.64 116.27 287.04 112.43 289.42 C 112.30 286.00 112.01 282.57 112.19 279.16 Z" />
<path fill="#fdfdfd" d=" M 36.73 275.92 C 38.31 274.51 39.87 273.08 41.46 271.69 C 42.57 273.96 42.75 276.47 42.47 278.96 C 40.52 280.57 38.66 282.30 36.73 283.94 C 36.49 281.27 36.53 278.58 36.73 275.92 Z" />
<path fill="#010101" d=" M 247.34 276.50 C 252.01 276.28 256.69 276.03 261.35 276.54 C 260.94 283.10 259.39 289.54 259.33 296.12 C 259.00 296.41 258.33 297.00 258.00 297.29 C 254.40 297.15 250.79 297.26 247.19 297.16 C 248.34 290.31 248.84 283.34 247.34 276.50 Z" />
<path fill="#fafafa" d=" M 83.82 285.58 C 86.51 281.96 89.91 278.96 93.31 276.02 C 94.72 279.14 96.10 283.67 92.25 285.66 C 89.44 285.70 86.62 285.74 83.82 285.58 Z" />
<path fill="#f9f9f9" d=" M 36.76 285.98 C 38.90 284.06 40.97 282.07 43.20 280.26 C 43.78 282.12 44.35 283.98 44.90 285.86 C 42.45 288.58 39.80 291.15 36.70 293.12 C 36.45 290.74 36.45 288.35 36.76 285.98 Z" />
<path fill="#fefefe" d=" M 112.89 290.72 C 116.01 287.73 119.11 284.65 122.75 282.28 C 122.71 284.76 123.13 287.33 122.52 289.77 C 120.76 291.87 118.64 293.68 116.47 295.35 C 114.77 295.99 112.89 295.51 111.13 295.50 C 111.34 293.79 111.39 291.88 112.89 290.72 Z" />
<path fill="#fefefe" d=" M 37.94 295.22 C 39.50 291.83 42.63 289.64 45.31 287.21 C 46.77 289.79 47.84 292.55 48.75 295.37 C 45.16 295.80 41.51 295.84 37.94 295.22 Z" />
<path fill="#fdfdfd" d=" M 126.45 290.32 C 130.83 289.07 135.41 290.18 139.85 290.47 C 139.74 290.87 139.52 291.67 139.42 292.07 C 137.25 293.19 135.21 294.59 132.93 295.47 C 130.79 295.71 128.64 295.55 126.50 295.51 C 126.45 293.78 126.45 292.05 126.45 290.32 Z" />
<path fill="#ffffff" d=" M 121.07 292.36 C 121.56 292.36 122.54 292.37 123.04 292.37 C 123.47 295.00 120.08 297.40 118.96 294.09 C 119.67 293.51 120.37 292.94 121.07 292.36 Z" />
<path fill="#ffffff" d=" M 220.66 297.17 L 221.02 297.17 C 220.97 297.98 220.88 299.61 220.83 300.42 C 220.67 310.60 220.41 320.78 220.69 330.97 C 220.10 338.89 221.47 346.99 219.55 354.78 L 218.35 355.39 C 205.05 355.62 191.71 355.68 178.43 355.00 C 177.23 340.36 177.98 325.68 177.76 311.01 C 177.65 307.14 177.79 303.26 178.46 299.44 C 192.18 299.32 205.92 299.82 219.63 299.57 C 219.89 298.97 220.40 297.77 220.66 297.17 Z" />
<path fill="#000000" d=" M 51.20 298.66 C 65.61 298.95 80.04 298.30 94.42 299.37 C 92.32 308.87 87.47 318.06 88.57 328.03 C 88.72 332.23 88.65 336.45 88.53 340.66 C 87.63 344.95 84.75 348.48 82.99 352.45 C 74.10 353.00 65.15 352.85 56.25 352.54 C 57.50 346.69 60.46 340.85 59.25 334.78 C 55.88 326.59 56.15 317.54 53.50 309.17 C 52.41 305.75 51.59 302.24 51.20 298.66 Z" />
<path fill="#010101" d=" M 220.83 300.42 C 224.13 300.39 227.44 300.36 230.74 300.53 C 231.74 318.57 230.99 336.64 230.73 354.69 C 227.01 355.23 223.28 354.92 219.55 354.78 C 221.47 346.99 220.10 338.89 220.69 330.97 C 220.41 320.78 220.67 310.60 220.83 300.42 Z" />
<path fill="#020202" d=" M 234.95 300.86 C 237.60 300.49 240.30 300.55 242.97 300.67 C 242.75 301.64 242.53 302.60 242.30 303.57 C 239.54 303.74 237.19 302.24 234.95 300.86 Z" />
<path fill="#000000" d=" M 55.04 357.55 C 58.57 356.28 62.38 356.88 66.05 356.79 C 71.00 356.69 75.94 356.96 80.88 357.30 C 76.75 373.75 76.26 391.52 81.92 407.67 C 86.23 415.00 93.59 419.90 100.43 424.67 C 102.53 426.03 106.67 426.67 105.84 429.99 C 104.92 430.48 104.00 431.02 102.99 431.28 C 97.66 432.16 92.36 433.48 86.92 433.26 C 83.54 433.46 81.16 430.34 77.88 429.93 C 72.40 429.01 67.21 427.00 61.78 425.89 C 60.37 425.49 58.65 425.45 57.85 424.01 C 56.36 420.78 57.96 417.28 58.93 414.15 C 57.61 414.60 56.23 414.77 54.85 414.88 C 53.32 411.22 55.10 407.77 57.39 404.95 C 57.84 407.24 57.45 409.65 58.09 411.91 C 58.38 412.04 58.94 412.31 59.22 412.44 C 60.22 401.50 58.28 390.67 56.59 379.91 C 56.27 372.44 55.46 365.01 55.04 357.55 Z" />
<path fill="#030303" d=" M 83.84 357.43 C 85.54 357.20 87.24 357.00 88.94 356.78 C 86.44 361.50 83.97 366.22 81.81 371.10 C 81.71 366.46 82.93 361.94 83.84 357.43 Z" />
<path fill="#ffffff" d=" M 178.36 357.64 C 186.56 357.49 194.77 357.72 202.97 357.74 C 207.96 357.78 212.99 357.49 217.91 358.45 C 217.25 362.67 215.26 366.62 215.16 370.95 C 214.77 382.52 216.93 393.96 218.93 405.31 C 220.96 412.99 221.50 421.38 218.65 428.94 C 217.70 431.91 215.73 435.01 217.51 438.10 C 216.49 441.16 213.99 443.19 211.24 444.68 C 214.01 444.96 216.75 445.36 219.51 445.73 C 214.33 445.73 209.17 446.36 204.00 446.09 C 195.48 445.51 186.93 445.92 178.41 445.67 C 177.18 438.84 177.92 431.86 177.89 424.98 C 178.66 418.27 177.40 411.55 177.98 404.85 C 178.52 399.23 177.54 393.62 177.82 388.00 C 178.55 377.89 177.85 367.75 178.36 357.64 Z" />
<path fill="#ffffff" d=" M 242.26 357.84 C 257.59 358.52 272.97 357.83 288.32 358.46 C 288.85 382.31 288.22 406.17 288.39 430.03 C 288.28 435.21 288.80 440.44 287.87 445.57 C 280.19 444.20 272.40 445.13 264.66 444.78 C 264.65 443.10 264.65 441.42 264.65 439.75 C 266.86 439.63 269.08 439.51 271.29 439.36 C 271.48 438.51 271.66 437.67 271.84 436.83 C 261.04 435.99 251.65 429.93 243.29 423.51 C 239.73 420.87 239.59 416.10 238.92 412.11 C 237.10 394.24 238.42 376.09 242.11 358.53 L 242.26 357.84 Z" />
<path fill="#010101" d=" M 233.70 388.01 C 234.39 378.23 234.07 368.44 234.40 358.65 C 236.97 358.60 239.54 358.54 242.11 358.53 C 238.42 376.09 237.10 394.24 238.92 412.11 C 239.59 416.10 239.73 420.87 243.29 423.51 C 251.65 429.93 261.04 435.99 271.84 436.83 C 271.66 437.67 271.48 438.51 271.29 439.36 C 269.08 439.51 266.86 439.63 264.65 439.75 C 260.57 441.09 256.19 440.28 251.99 440.65 C 245.90 441.52 239.73 440.49 233.79 439.17 C 233.23 422.13 234.11 405.06 233.70 388.01 Z" />
<path fill="#020202" d=" M 83.85 403.85 C 87.25 405.83 90.39 408.29 94.06 409.78 C 97.99 411.40 101.98 413.03 105.39 415.63 C 105.40 416.07 105.43 416.94 105.44 417.38 C 102.46 418.77 98.99 419.21 95.82 418.26 C 91.75 415.27 88.62 411.20 85.45 407.32 C 84.54 406.37 84.15 405.09 83.85 403.85 Z" />
<path fill="#040404" d=" M 266.55 457.57 C 269.35 457.25 271.99 458.04 274.28 459.64 C 274.57 462.02 275.66 464.89 273.63 466.83 C 271.75 469.58 268.14 468.28 265.38 468.41 C 263.54 466.68 262.22 464.49 262.58 461.87 C 262.89 461.37 263.49 460.36 263.80 459.86 C 264.71 459.09 265.63 458.33 266.55 457.57 Z" />
<path fill="#f9f9f9" d=" M 229.88 458.49 C 230.29 458.51 231.11 458.54 231.53 458.56 C 231.52 458.98 231.50 459.81 231.48 460.22 L 230.66 460.53 C 230.38 460.22 229.81 459.61 229.52 459.30 L 229.88 458.49 Z" />
<path fill="#ffffff" d=" M 263.95 462.05 C 264.85 458.32 269.07 457.17 272.31 459.01 C 270.62 460.24 268.53 460.33 266.57 460.75 C 266.38 462.84 266.11 465.15 267.51 466.93 C 267.48 465.60 267.43 462.93 267.40 461.60 C 268.48 460.98 269.73 461.12 270.75 461.82 C 267.67 462.87 269.95 465.03 270.47 466.65 C 270.25 464.01 271.36 461.71 273.15 459.86 C 273.62 462.27 274.39 465.43 271.86 467.01 C 268.55 470.22 262.23 466.48 263.95 462.05 Z" />
<path fill="#ffffff" d=" M 227.92 464.83 C 230.53 464.34 233.21 464.48 235.85 464.65 C 235.27 465.18 234.69 465.72 234.12 466.27 C 232.32 466.33 230.52 466.40 228.72 466.53 C 228.95 467.66 229.17 468.81 229.36 469.96 C 227.53 469.06 226.69 466.53 227.92 464.83 Z" />
</svg>
