<?xml version="1.0" standalone="no"?>
<!DOCTYPE svg PUBLIC "-//W3C//DTD SVG 1.1//EN" "http://www.w3.org/Graphics/SVG/1.1/DTD/svg11.dtd" >
<svg>
<metadata>
Created by FontForge 20090622 at Mon Feb 19 17:20:20 2018
 By deploy user
Copyright 1990 as an unpublished work by Bitstream Inc.  All rights reserved.  Confidential.
</metadata>
<defs>
<font id="CopperplateGothicBT-Roman" horiz-adv-x="500" >
  <font-face 
    font-family="Copperplate Gothic"
    font-weight="500"
    font-stretch="normal"
    units-per-em="1000"
    panose-1="0 0 0 0 0 0 0 0 0 0"
    ascent="800"
    descent="-200"
    x-height="431"
    cap-height="525"
    bbox="-167 -236 1178 793"
    underline-thickness="54"
    underline-position="-48"
    unicode-range="U+0020-U+FB02"
  />
<missing-glyph horiz-adv-x="314" 
 />
    <glyph glyph-name=".notdef" horiz-adv-x="314" 
 />
    <glyph glyph-name=".null" horiz-adv-x="0" 
 />
    <glyph glyph-name="nonmarkingreturn" horiz-adv-x="333" 
 />
    <glyph glyph-name="space" unicode=" " horiz-adv-x="314" 
 />
    <glyph glyph-name="exclam" unicode="!" horiz-adv-x="347" 
d="M125 39q0 20 14.5 34t34.5 14t34 -13.5t14 -34.5q0 -20 -14 -34t-34 -14t-34.5 14.5t-14.5 33.5zM243 525v-12q-23 -3 -24 -30l-22 -284v-5q0 -29 25 -29v-13h-97v13q25 0 25 29v5l-21 284q-1 27 -25 30v12h139z" />
    <glyph glyph-name="quotedbl" unicode="&#x22;" horiz-adv-x="278" 
d="M97 700v-270h-49v270h49zM231 700v-270h-50v270h50z" />
    <glyph glyph-name="numbersign" unicode="#" horiz-adv-x="769" 
d="M448 710l-82 -236h129l84 236h62l-83 -236h154l-18 -52h-155l-48 -136h166l-18 -52h-166l-83 -234h-63l84 234h-131l-84 -234h-62l83 234h-160l19 52h159l49 136h-172l17 52h173l84 236h62zM476 422h-130l-47 -136h130z" />
    <glyph glyph-name="dollar" unicode="$" horiz-adv-x="627" 
d="M298 -87v83q-48 0 -89.5 14t-66 27.5t-30.5 13.5q-8 0 -20 -14l-11 5l55 116l10 -5q-2 -3 -2 -9q0 -21 43.5 -46t110.5 -34v169q-190 23 -190 148q0 64 50.5 105.5t139.5 45.5v54h50v-54h4q43 0 80 -10t58 -20t25 -10q8 0 19 14l11 -5l-41 -107l-11 5q1 2 1 7
q0 21 -40.5 39t-105.5 21v-165q101 -12 148.5 -46.5t47.5 -99.5q0 -70 -51 -113t-145 -47v-82h-50zM298 307v161q-118 -3 -118 -81q0 -34 28 -53t90 -27zM348 62q121 10 121 89q0 34 -28.5 51t-92.5 24v-164z" />
    <glyph glyph-name="percent" unicode="%" horiz-adv-x="834" 
d="M176 -9l423 543h59l-422 -543h-60zM35 370q0 71 46.5 117t119.5 46q74 0 120 -46t46 -117q0 -70 -46 -116t-120 -46t-120 46t-46 116zM100 372q0 -50 28 -81t72 -31q45 0 73 31t28 81q0 49 -28.5 80t-72.5 31t-72 -31t-28 -80zM467 153q0 71 46.5 117t119.5 46
q74 0 120 -46t46 -117q0 -70 -46 -116t-120 -46t-120 46t-46 116zM532 154q0 -50 28 -80.5t73 -30.5t73 30.5t28 80.5q0 49 -28.5 80.5t-72.5 31.5t-72.5 -31.5t-28.5 -80.5z" />
    <glyph glyph-name="ampersand" unicode="&#x26;" horiz-adv-x="671" 
d="M426 69q-92 -77 -187 -77q-82 0 -134 44t-52 114q0 97 109 155q-42 58 -42 101q0 53 45.5 89t115.5 36q71 0 117.5 -36t46.5 -95q0 -58 -70 -103q37 -27 60 -68q42 59 76 90.5t79 43.5v-115h-14q0 20 -10 20q-5 0 -20 -13t-37 -44.5t-39 -70.5q22 -34 49 -52t45 -18
q13 0 13 18h11v-91h-5q-51 0 -85.5 16t-71.5 56zM197 403q0 -31 23.5 -51.5t60.5 -20.5q40 0 64 19.5t24 50.5t-22.5 51.5t-60.5 20.5q-40 0 -64.5 -20t-24.5 -50zM134 155q0 -43 32.5 -72t85.5 -29q55 0 93.5 28.5t38.5 68.5q0 43 -42 79t-89 36t-83 -32.5t-36 -78.5z" />
    <glyph glyph-name="quotesingle" unicode="'" horiz-adv-x="144" 
d="M97 700v-270h-49v270h49z" />
    <glyph glyph-name="parenleft" unicode="(" horiz-adv-x="359" 
d="M279 -104q-13 0 -45 25.5t-67 68.5q-76 94 -76 226q0 120 66 213q32 45 70 76t52 31q10 0 10 -7t-7.5 -13.5l-23 -19.5t-28.5 -29q-36 -45 -49 -103.5t-13 -147.5t13 -148t49 -104q13 -16 28.5 -28.5l23 -19t7.5 -13.5t-10 -7z" />
    <glyph glyph-name="parenright" unicode=")" horiz-adv-x="359" 
d="M266 216q0 -131 -77 -226q-35 -43 -66.5 -68.5t-44.5 -25.5q-10 0 -10 7t7 13.5t22.5 19t28.5 28.5q36 45 49.5 104.5t13.5 147.5q0 162 -53 239q-12 17 -25.5 30t-22 19t-14.5 12.5t-6 12.5q0 7 10 7q13 0 45 -26t66 -68q77 -97 77 -226z" />
    <glyph glyph-name="asterisk" unicode="*" 
d="M238 390l-18 103q-3 20 -10 24q-4 3 -13 5v12h106v-12q-4 -1 -6.5 -2t-4.5 -2.5t-3.5 -2t-2.5 -2.5t-2 -2.5t-1.5 -3.5t-0.5 -4t-1 -5t-1 -5l-18 -103l92 49q12 6 16 10.5t4 16.5v4l11 4l34 -102l-12 -3q-11 15 -19 15h-2q-2 -1 -6 -1.5t-8 -0.5l-103 -14l75 -73
q13 -13 20 -13q2 0 16 4l7 -10l-86 -63l-7 10q9 13 9 18t-7 19l-46 94l-46 -94q-7 -14 -7 -19t9 -18l-7 -10l-86 63l7 10q14 -4 16 -4q7 0 20 13l75 73l-103 14q-3 0 -6 0.5t-5 1t-3 0.5h-2q-8 0 -19 -15l-12 3l34 102l11 -4v-4q0 -12 4 -16.5t16 -10.5z" />
    <glyph glyph-name="plus" unicode="+" horiz-adv-x="833" 
d="M441 596v-274h268v-48h-268v-274h-48v274h-269v48h269v274h48z" />
    <glyph glyph-name="comma" unicode="," horiz-adv-x="314" 
d="M96 -99q36 20 56 43t20 42q0 9 -2.5 11t-13.5 3q-2 1 -4 1q-41 6 -41 43q0 20 14 34.5t35 14.5q25 0 41.5 -20.5t16.5 -53.5q0 -98 -122 -149v31z" />
    <glyph glyph-name="hyphen" unicode="-" horiz-adv-x="331" 
d="M51 229v66h229v-66h-229z" />
    <glyph glyph-name="period" unicode="." horiz-adv-x="314" 
d="M108 39q0 20 14.5 34t34.5 14t34 -13.5t14 -34.5q0 -20 -14 -34t-34 -14t-34.5 14.5t-14.5 33.5z" />
    <glyph glyph-name="slash" unicode="/" horiz-adv-x="278" 
d="M-54 -93l283 627h57l-284 -627h-56z" />
    <glyph glyph-name="zero" unicode="0" horiz-adv-x="627" 
d="M47 262q0 118 75 194.5t192 76.5t191.5 -76.5t74.5 -194.5t-74.5 -194.5t-191.5 -76.5t-192 76.5t-75 194.5zM131 264q0 -92 51.5 -148.5t131.5 -56.5t131.5 57t51.5 148t-51.5 147.5t-131.5 56.5t-131.5 -56.5t-51.5 -147.5z" />
    <glyph glyph-name="one" unicode="1" horiz-adv-x="627" 
d="M393 525v-11q-14 -4 -18.5 -10t-4.5 -20v-443q0 -14 4.5 -19.5t18.5 -9.5v-12h-130v12q14 4 18.5 9.5t4.5 19.5v360l-34 -13q-19 -7 -24 -25h-12v100h12q4 -13 15 -13q5 0 17 4l26 11v19q0 14 -4.5 20t-18.5 10v11h130z" />
    <glyph glyph-name="two" unicode="2" horiz-adv-x="627" 
d="M78 -23v11q0 135 147 229q28 18 75 42.5t62 33.5q32 20 45.5 38.5t13.5 49.5q0 39 -29.5 63t-76.5 24q-59 0 -106.5 -34.5t-47.5 -59.5q0 -7 2 -19l-10 -7l-78 104l10 7q14 -8 21 -8t16.5 5.5t27 17.5t31.5 20q70 40 147 40q80 0 128.5 -43t48.5 -112q0 -62 -36.5 -97.5
t-121.5 -78.5q-66 -34 -105 -60.5t-67 -67.5h323q14 0 19.5 4.5t9.5 18.5h12v-121h-12q-4 14 -9.5 18.5t-19.5 4.5h-379q-14 0 -20 -4.5t-10 -18.5h-11z" />
    <glyph glyph-name="three" unicode="3" horiz-adv-x="627" 
d="M52 45l55 117l10 -5q-1 -4 -1 -10q0 -11 6.5 -17t27.5 -19q4 -3 6 -4q76 -48 162 -48q63 0 99.5 29t36.5 75q0 90 -136 90q-27 0 -38 -0.5t-23 -2.5t-16 -7.5t-4 -14.5h-11v116h11q2 -17 14.5 -21t48.5 -4h11q112 0 112 72q0 36 -31 56.5t-87 20.5q-59 0 -108 -28.5
t-49 -48.5q0 -3 5 -18l-9 -8l-83 99l9 8q16 -9 20 -9q5 0 33 18t78 36t109 18q90 0 142.5 -39.5t52.5 -104.5q0 -63 -60 -103q49 -24 71 -53t22 -72q0 -73 -61 -123.5t-159 -50.5q-59 0 -112 16.5t-84.5 32.5t-37.5 16q-7 0 -21 -14z" />
    <glyph glyph-name="four" unicode="4" horiz-adv-x="627" 
d="M467 41q0 -14 4.5 -19.5t18.5 -9.5v-12h-127v12q14 4 18.5 9.5t4.5 19.5v62h-283q-14 0 -20 -4.5t-10 -18.5h-11v91l269 313q8 8 8 19q0 8 -12 11v11h163v-11q-14 -4 -18.5 -10t-4.5 -20v-313h44q14 0 19.5 4.5t9.5 18.5h12v-114h-12q-4 14 -9.5 18.5t-19.5 4.5h-44v-62z
M387 170v283l-243 -283h243z" />
    <glyph glyph-name="five" unicode="5" horiz-adv-x="627" 
d="M135 157l10 -6l-4 -18q0 -21 49.5 -44.5t115.5 -23.5q67 0 108.5 33.5t41.5 86.5q0 50 -38 79.5t-104 29.5q-52 0 -83 -13.5t-31 -31.5q0 -8 3 -16l-8 -9l-125 114l8 9h4q18 0 18 17v120q0 14 -4.5 20t-18.5 10v11h391q14 0 19.5 5t9.5 19h12v-116h-12q-4 14 -9.5 18.5
t-19.5 4.5h-294v-122q71 32 147 32q102 0 160.5 -49t58.5 -133q0 -87 -61.5 -139.5t-168.5 -52.5q-59 0 -109.5 15t-79 30t-34.5 15q-5 0 -19 -11l-9 7z" />
    <glyph glyph-name="six" unicode="6" horiz-adv-x="627" 
d="M166 289q79 65 171 65t151.5 -50.5t59.5 -126.5q0 -82 -61.5 -134.5t-163.5 -52.5q-111 0 -175.5 70.5t-64.5 190.5q0 131 72 207.5t196 76.5q46 0 96.5 -17t59.5 -17t20 12l10 -5l-55 -112l-10 5q2 3 2 9q0 22 -39.5 41.5t-92.5 19.5q-77 0 -124 -48t-52 -134zM178 173
q0 -51 39.5 -85t103.5 -34q68 0 106 33t38 87q0 50 -40.5 82.5t-100.5 32.5q-67 0 -106.5 -31t-39.5 -85z" />
    <glyph glyph-name="seven" unicode="7" horiz-adv-x="627" 
d="M181 0v12q28 9 37 26l227 416h-337q-14 0 -19.5 -4.5t-9.5 -18.5h-12v118h12q4 -14 9.5 -19t19.5 -5h389q13 0 19 5t10 19h11v-79l-230 -429q-3 -6 -3 -13q0 -10 21 -16v-12h-144z" />
    <glyph glyph-name="eight" unicode="8" horiz-adv-x="627" 
d="M160 278q-37 19 -53 43t-16 62q0 66 59.5 108t163.5 42t163.5 -42t59.5 -108q0 -38 -16 -62t-53 -43q89 -42 89 -124q0 -76 -63 -120.5t-180 -44.5t-180.5 44.5t-63.5 120.5q0 81 90 124zM314 471q-68 0 -107 -24.5t-39 -61.5q0 -78 146 -78q145 0 145 78q0 38 -38.5 62
t-106.5 24zM151 152q0 -45 42.5 -71t120.5 -26t121 26t43 71q0 43 -42.5 67.5t-121.5 24.5t-121 -24.5t-42 -67.5z" />
    <glyph glyph-name="nine" unicode="9" horiz-adv-x="627" 
d="M461 234q-74 -57 -177 -57q-90 0 -147.5 49.5t-57.5 119.5q0 83 60.5 135t163.5 52q109 0 175 -70.5t66 -191.5q0 -130 -69 -206t-187 -76q-56 0 -116.5 20.5t-68.5 20.5q-9 0 -20 -12l-10 5l55 112l11 -5q-3 -4 -3 -9q0 -23 46.5 -44t103.5 -21q78 0 123.5 46t51.5 132z
M445 355q0 48 -41 81.5t-106 33.5q-61 0 -98.5 -33.5t-37.5 -83.5q0 -48 37.5 -79.5t98.5 -31.5q66 0 106.5 31t40.5 82z" />
    <glyph glyph-name="colon" unicode=":" horiz-adv-x="337" 
d="M120 39q0 20 14 34t34 14q21 0 35 -13.5t14 -34.5q0 -20 -14.5 -34t-34.5 -14t-34 14.5t-14 33.5zM120 299q0 20 14 34.5t34 14.5t34.5 -14t14.5 -35q0 -20 -14.5 -34t-34.5 -14t-34 14.5t-14 33.5z" />
    <glyph glyph-name="semicolon" unicode=";" horiz-adv-x="337" 
d="M107 -99q77 42 77 85q0 9 -3 11t-13 3q-3 1 -5 1q-40 6 -40 43q0 20 14 34.5t35 14.5q25 0 41.5 -20.5t16.5 -53.5q0 -97 -123 -149v31zM123 299q0 20 14 34.5t34 14.5t34.5 -14t14.5 -35q0 -20 -14.5 -34t-34.5 -14q-19 0 -33.5 14.5t-14.5 33.5z" />
    <glyph glyph-name="less" unicode="&#x3c;" horiz-adv-x="833" 
d="M704 501l-499 -203l499 -202v-53l-575 235v40l575 236v-53z" />
    <glyph glyph-name="equal" unicode="=" horiz-adv-x="833" 
d="M709 413v-48h-585v48h585zM709 231v-48h-585v48h585z" />
    <glyph glyph-name="greater" unicode="&#x3e;" horiz-adv-x="833" 
d="M704 318v-40l-575 -235v53l499 202l-499 203v53z" />
    <glyph glyph-name="question" unicode="?" horiz-adv-x="474" 
d="M185 39q0 20 14.5 34t34.5 14t34 -13.5t14 -34.5q0 -20 -14 -34t-34 -14t-34.5 14.5t-14.5 33.5zM181 154v15l24 8q0 61 40 115l23 29t22.5 29.5t13 24.5t6.5 28q0 66 -74 66q-40 0 -70 -23t-30 -37q0 -5 5 -17l-10 -7l-71 77l8 9q2 0 5 -1q4 -1 5 -1q6 0 28 16t59 32.5
t80 16.5q63 0 102.5 -36t39.5 -88q0 -27 -13 -54t-26.5 -43.5t-43.5 -48.5q-32 -35 -32 -75v-12l17 -8v-15h-108z" />
    <glyph glyph-name="at" unicode="@" horiz-adv-x="1000" 
d="M591 229l30 121q-9 46 -37 71.5t-68 25.5q-76 0 -124.5 -66t-48.5 -164q0 -55 27 -85t74 -30q52 0 92.5 34.5t54.5 92.5zM634 408l29 61h46l-68 -274q-8 -35 -8 -45q0 -21 13.5 -33t38.5 -12q53 0 103 40q47 37 73.5 99.5t26.5 138.5q0 122 -96 202.5t-249 80.5
q-171 0 -284 -97q-145 -124 -145 -319q0 -166 119 -262q104 -85 266 -85q172 0 310 94l19 -27q-144 -108 -319 -108q-187 0 -304 90q-148 113 -148 310q0 204 165 340q131 108 322 108q165 0 272 -82q127 -98 127 -248q0 -171 -119 -265q-69 -54 -151 -54q-94 0 -94 74
q0 2 0.5 6.5t0.5 7.5q-51 -88 -144 -88q-75 0 -114 41t-39 119q0 113 66.5 190t160.5 77q92 0 124 -80z" />
    <glyph glyph-name="A" unicode="A" horiz-adv-x="663" 
d="M28 0v12q17 6 26 15.5t16 25.5l189 417q9 20 9 27q0 11 -13 17v11h143v-11q-13 -6 -13 -17q0 -9 9 -27l194 -410q18 -37 46 -48v-12h-138v12q13 6 13 16q0 7 -9 27l-39 83h-274l-37 -83q-10 -20 -10 -27q0 -10 13 -16v-12h-125zM217 209h211l-106 230z" />
    <glyph glyph-name="B" unicode="B" horiz-adv-x="708" 
d="M408 453h-201v-136h217q110 0 110 68q0 39 -29 53.5t-97 14.5zM395 242h-188v-167h183q87 0 123.5 17.5t36.5 65.5q0 45 -37.5 64.5t-117.5 19.5zM101 0v12q14 4 18.5 9.5t4.5 19.5v443q0 14 -4.5 20t-18.5 10v11h325q91 0 140 -36.5t49 -97.5q0 -71 -72 -109
q88 -43 88 -128q0 -72 -56 -113t-160 -41h-314z" />
    <glyph glyph-name="C" unicode="C" horiz-adv-x="663" 
d="M545 373q3 8 3 14q0 10 -8 17t-28 18q-77 41 -152 41q-100 0 -159.5 -56t-59.5 -145q0 -90 61 -144.5t160 -54.5q49 0 96 19.5t70.5 40t23.5 29.5q0 5 -5 18l9 8l82 -102l-10 -7q-12 9 -20 9q-3 0 -8.5 -4l-16.5 -12t-22 -14q-94 -57 -203 -57q-135 0 -218.5 78
t-83.5 194q0 115 83 193t214 78q59 0 113 -15t86 -30t36 -15q7 0 20 13l10 -6l-63 -114z" />
    <glyph glyph-name="D" unicode="D" horiz-adv-x="722" 
d="M100 0v12q14 4 18.5 9.5t4.5 19.5v443q0 14 -4.5 20t-18.5 10v11h245q84 0 139 -11.5t98 -47.5q84 -70 84 -203q0 -134 -84 -204q-43 -36 -98 -47.5t-139 -11.5h-245zM206 461v-394h169q104 0 158 50.5t54 146.5q0 94 -54 145.5t-158 51.5h-169z" />
    <glyph glyph-name="E" unicode="E" horiz-adv-x="653" 
d="M544 66q14 0 19.5 4.5t9.5 18.5h12v-112h-11q-4 14 -9.5 18.5t-19.5 4.5h-444v12q14 4 18.5 9.5t4.5 19.5v443q0 14 -4.5 20t-18.5 10v11h421q13 0 19.5 5.5t10.5 19.5h11v-113h-10q-4 14 -10 18.5t-20 4.5h-316v-158h208q13 0 19 5t10 19h12v-112h-11q-4 14 -9.5 18.5
t-19.5 4.5h-209v-171h337z" />
    <glyph glyph-name="F" unicode="F" horiz-adv-x="623" 
d="M207 41q0 -14 5 -19.5t19 -9.5v-12h-130v12q14 4 18.5 9.5t4.5 19.5v443q0 14 -4.5 20t-18.5 10v11h436q13 0 19 5.5t10 19.5h12v-113h-11q-4 14 -9.5 18.5t-19.5 4.5h-331v-158h218q13 0 19 5t10 19h12v-112h-11q-4 14 -9.5 18.5t-19.5 4.5h-219v-196z" />
    <glyph glyph-name="G" unicode="G" horiz-adv-x="697" 
d="M638 97q-134 -106 -280 -106q-135 0 -218.5 78t-83.5 194q0 115 83 193t214 78q59 0 113 -15t86 -30t36 -15q7 0 20 13l10 -6l-63 -114l-10 6q3 8 3 13q0 11 -8 18t-29 18q-74 40 -149 40q-102 0 -161.5 -55t-59.5 -145t61 -144.5t158 -54.5q89 0 177 56v80h-138
q-14 0 -19.5 -4.5t-9.5 -18.5h-12v116h11q4 -14 9.5 -18.5t19.5 -4.5h241v-12q-14 -4 -18.5 -9.5t-4.5 -19.5v-109l22 -7v-15z" />
    <glyph glyph-name="H" unicode="H" horiz-adv-x="762" 
d="M101 0v12q14 4 18.5 9.5t4.5 19.5v443q0 14 -4.5 20t-18.5 10v11h130v-11q-14 -4 -19 -10t-5 -20v-182h347v182q0 14 -4.5 20t-18.5 10v11h129v-11q-14 -4 -18.5 -10t-4.5 -20v-443q0 -14 4.5 -19.5t18.5 -9.5v-12h-129v12q14 4 18.5 9.5t4.5 19.5v194h-347v-194
q0 -14 5 -19.5t19 -9.5v-12h-130z" />
    <glyph glyph-name="I" unicode="I" horiz-adv-x="332" 
d="M101 0v12q14 4 18.5 9.5t4.5 19.5v443q0 14 -4.5 20t-18.5 10v11h130v-11q-14 -4 -18.5 -10t-4.5 -20v-443q0 -14 4.5 -19.5t18.5 -9.5v-12h-130z" />
    <glyph glyph-name="J" unicode="J" horiz-adv-x="522" 
d="M403 209q0 -215 -199 -215q-53 0 -109 21t-60 21q-10 0 -21 -16l-11 4l46 121l11 -4q-2 -4 -2 -7q0 -22 45.5 -45.5t98.5 -23.5q75 0 96 37.5t21 129.5v252q0 14 -4.5 20t-18.5 10v11h130v-11q-14 -4 -18.5 -10t-4.5 -20v-275z" />
    <glyph glyph-name="K" unicode="K" horiz-adv-x="685" 
d="M207 41q0 -14 5 -19.5t19 -9.5v-12h-130v12q14 4 18.5 9.5t4.5 19.5v443q0 14 -4.5 20t-18.5 10v11h130v-11q-14 -4 -19 -10t-5 -20v-200l255 194q19 14 19 22q0 10 -12 14v11h152v-11q-37 -14 -83 -50l-156 -120l218 -283q32 -42 50 -49v-12h-136v12q11 4 11 11
q0 8 -17 32l-187 243l-114 -88v-169z" />
    <glyph glyph-name="L" unicode="L" horiz-adv-x="637" 
d="M544 66q14 0 19.5 4.5t9.5 18.5h12v-112h-11q-4 14 -9.5 18.5t-19.5 4.5h-444v12q14 4 18.5 9.5t4.5 19.5v443q0 14 -4.5 20t-18.5 10v11h130v-11q-14 -4 -19 -10t-5 -20v-418h337z" />
    <glyph glyph-name="M" unicode="M" horiz-adv-x="825" 
d="M187 41q0 -14 4.5 -19.5t18.5 -9.5v-12h-112v12q14 4 18.5 9.5t4.5 19.5v443q0 14 -4.5 20t-18.5 10v11h164v-11q-19 -6 -19 -20q0 -1 7 -15l160 -314l152 314q6 12 6 15q0 14 -19 20v11h175v-11q-14 -4 -18.5 -10t-4.5 -20v-443q0 -14 4.5 -19.5t18.5 -9.5v-12h-130v12
q14 4 18.5 9.5t4.5 19.5v409l-210 -432l-220 421v-398z" />
    <glyph glyph-name="N" unicode="N" horiz-adv-x="764" 
d="M523 0v12q19 6 19 19q0 7 -6 15l-348 393v-398q0 -14 5 -19.5t19 -9.5v-12h-113v12q14 4 18.5 9.5t4.5 19.5v443q0 14 -4.5 20t-18.5 10v11h178v-11q-19 -6 -19 -20q0 -9 6 -15l312 -342v347q0 14 -4.5 20t-18.5 10v11h112v-11q-14 -4 -18.5 -10t-4.5 -20v-443
q0 -14 4.5 -19.5t18.5 -9.5v-12h-142z" />
    <glyph glyph-name="O" unicode="O" horiz-adv-x="706" 
d="M141 262q0 -89 58 -144t155 -55q95 0 152.5 55.5t57.5 143.5t-57.5 143.5t-153.5 55.5t-154 -55.5t-58 -143.5zM353 -9q-130 0 -213.5 78t-83.5 194q0 115 83 193t214 78t214 -78t83 -193q0 -116 -83.5 -194t-213.5 -78z" />
    <glyph glyph-name="P" unicode="P" horiz-adv-x="659" 
d="M357 452h-150v-153h155q79 0 117 18.5t38 59.5t-38.5 58t-121.5 17zM380 525q104 0 160 -40.5t56 -111.5q0 -77 -57 -112t-173 -35h-159v-185q0 -14 5 -19.5t19 -9.5v-12h-130v12q14 4 18.5 9.5t4.5 19.5v443q0 14 -4.5 20t-18.5 10v11h279z" />
    <glyph glyph-name="Q" unicode="Q" horiz-adv-x="706" 
d="M416 70q-50 66 -113 66h-12l-2 12q31 15 64 15q78 0 125 -67q86 63 86 166q0 89 -57.5 144t-153.5 55q-95 0 -153.5 -55.5t-58.5 -143.5t57.5 -143.5t147.5 -55.5q21 0 70 7zM465 9q-52 -17 -110 -17q-133 0 -216 77.5t-83 193.5q0 115 83 193t214 78q132 0 214.5 -77.5
t82.5 -193.5q0 -69 -32.5 -127.5t-92.5 -97.5l38 -46q11 -14 19 -14q2 0 18 6l7 -10l-87 -71l-7 9q9 12 9 20q0 5 -9 17z" />
    <glyph glyph-name="R" unicode="R" horiz-adv-x="685" 
d="M357 452h-150v-153h155q79 0 117 18.5t38 59.5t-38.5 58t-121.5 17zM380 525q104 0 160 -40.5t56 -111.5q0 -53 -31.5 -90t-88.5 -49l48 -77l39 -63.5l28 -43.5t23.5 -29.5t17.5 -8.5h4v-12h-140v12h4q15 0 15 12q0 2 -5 10l-121 193h-182v-186q0 -14 4.5 -19.5
t19.5 -9.5v-12h-130v12q15 4 19 9.5t4 19.5v443q0 14 -4.5 20t-18.5 10v11h279z" />
    <glyph glyph-name="S" unicode="S" horiz-adv-x="649" 
d="M56 58l-10 6l75 109l9 -7q-4 -11 -4 -18q0 -10 24.5 -30t74.5 -38t104 -18q80 0 126 27t46 69q0 41 -39.5 56t-133.5 17q-127 4 -185 33.5t-58 101.5q0 70 70 118.5t180 48.5q46 0 91.5 -12t75 -24.5t35.5 -12.5q8 0 21 13l10 -6l-63 -113l-10 6q3 4 3 10q0 25 -51 47.5
t-118 22.5q-72 0 -116 -25t-44 -61q0 -14 4.5 -25t15.5 -17.5t21 -11t32 -7t36 -3t43.5 -2t46.5 -2.5q111 -7 163 -41t52 -105t-75 -122.5t-187 -51.5q-50 0 -97 12t-74 26.5l-49 26.5t-27 12q-6 0 -18 -9z" />
    <glyph glyph-name="T" unicode="T" horiz-adv-x="594" 
d="M229 0v12q14 4 18.5 9.5t4.5 19.5v418h-169q-14 0 -19.5 -4.5t-9.5 -18.5h-11v113h12q4 -14 9.5 -19t19.5 -5h424q14 0 19.5 5t9.5 19h12v-113h-11q-4 14 -9.5 18.5t-19.5 4.5h-173v-418q0 -14 4.5 -19.5t18.5 -9.5v-12h-130z" />
    <glyph glyph-name="U" unicode="U" horiz-adv-x="746" 
d="M123 202v282q0 14 -4.5 20t-18.5 10v11h130v-11q-14 -4 -18.5 -10t-4.5 -20v-282q0 -71 39.5 -103.5t126.5 -32.5q89 0 127.5 32.5t38.5 103.5v282q0 14 -4.5 20t-18.5 10v11h130v-11q-14 -4 -19 -10t-5 -20v-282q0 -111 -58.5 -160t-190.5 -49q-136 0 -193 49t-57 160z
" />
    <glyph glyph-name="V" unicode="V" horiz-adv-x="629" 
d="M478 472q5 11 5 19q0 18 -24 23v11h143v-11q-28 -10 -41 -41l-179 -417q-5 -10 -5 -21q0 -20 22 -23v-12h-162v12q22 3 22 23q0 7 -6 21l-187 418q-14 29 -40 40v11h143v-11q-24 -5 -24 -24q0 -8 5 -18l168 -374z" />
    <glyph glyph-name="W" unicode="W" horiz-adv-x="946" 
d="M339 56q-6 -15 -6 -21q0 -20 22 -23v-12h-151v12q22 3 22 23q0 9 -5 21l-146 399q-18 50 -49 59v11h143v-11q-24 -5 -24 -23q0 -2 5 -19l133 -361l128 360q6 15 6 21q0 20 -22 23v12h155v-12q-22 -3 -22 -23q0 -6 6 -21l126 -351l130 352q5 15 5 19q0 18 -23 23v11h142
v-11q-21 -7 -30 -19.5t-18 -38.5l-145 -400q-5 -12 -5 -21q0 -20 22 -23v-12h-151v12q22 3 22 23q0 3 -6 21l-134 360z" />
    <glyph glyph-name="X" unicode="X" horiz-adv-x="563" 
d="M159 53q-14 -19 -14 -26t16 -15l1 -12h-153v12q29 12 48 36l179 227l-153 203q-16 22 -49 36v11h153l-1 -11q-15 -8 -15 -15q0 -10 13 -27l102 -133l102 133q15 20 15 27q0 14 -16 15l-1 11h153v-11q-15 -6 -29 -18t-19 -18t-19 -24l-140 -178l173 -228q16 -22 48 -36
v-12h-153l1 12q16 8 16 15t-14 26l-120 160z" />
    <glyph glyph-name="Y" unicode="Y" horiz-adv-x="572" 
d="M217 0v12q14 4 18.5 9.5t4.5 19.5v177l-171 236q-33 45 -68 60v11h152v-11q-15 -3 -15 -14t12 -28l135 -184l135 184q12 17 12 28t-15 14v11h152v-11q-33 -15 -67 -60l-179 -236v-177q0 -14 5 -19.5t19 -9.5v-12h-130z" />
    <glyph glyph-name="Z" unicode="Z" horiz-adv-x="602" 
d="M101 459q-14 0 -19.5 -4.5t-9.5 -18.5h-13v113h12q4 -14 9.5 -19t19.5 -5h441v-11l-341 -448h295q14 0 19.5 4.5t9.5 18.5h13v-112h-12q-4 14 -9.5 18.5t-19.5 4.5h-434v19l335 440h-296z" />
    <glyph glyph-name="bracketleft" unicode="[" horiz-adv-x="368" 
d="M104 -112v637h225v-37h-150v-563h150v-37h-225z" />
    <glyph glyph-name="backslash" unicode="\" horiz-adv-x="278" 
d="M309 -93h-57l-283 627h56z" />
    <glyph glyph-name="bracketright" unicode="]" horiz-adv-x="368" 
d="M263 -112h-225v37h150v563h-150v37h225v-637z" />
    <glyph glyph-name="asciicircum" unicode="^" horiz-adv-x="1000" 
d="M534 712l259 -272h-70l-223 222l-224 -222h-70l260 272h68z" />
    <glyph glyph-name="underscore" unicode="_" 
d="M500 -187v-49h-500v49h500z" />
    <glyph glyph-name="grave" unicode="`" 
d="M336 494h-33l-161 100q-30 20 -30 40q0 15 10 25t26 10q20 0 47 -29z" />
    <glyph glyph-name="a" unicode="a" horiz-adv-x="576" 
d="M218 376q9 20 9 26q0 11 -13 17v12h140v-12q-13 -6 -13 -17q0 -6 9 -26l148 -316q18 -37 46 -48v-12h-129v12q13 6 13 16q0 9 -9 27l-27 57h-221l-26 -57q-6 -12 -6 -27q0 -11 12 -16v-12h-120v12q17 6 25.5 15.5t16.5 25.5zM198 177h166l-85 179z" />
    <glyph glyph-name="b" unicode="b" horiz-adv-x="610" 
d="M368 431q76 0 117 -30t41 -76q0 -63 -60 -94q74 -37 74 -106q0 -58 -47.5 -91.5t-134.5 -33.5h-267v12q14 4 18.5 9.5t4.5 19.5v349q0 14 -4.5 19.5t-18.5 9.5v12h277zM345 362h-152v-103h166q92 0 92 51q0 29 -25 40.5t-81 11.5zM334 191h-141v-122h136q73 0 104 12
t31 48q0 34 -31.5 48t-98.5 14z" />
    <glyph glyph-name="c" unicode="c" horiz-adv-x="561" 
d="M466 300l-8 5q2 4 2 8q0 21 -49.5 42.5t-102.5 21.5q-82 0 -130.5 -45t-48.5 -117t49.5 -116t129.5 -44q41 0 79.5 15.5t57.5 32t19 23.5q0 3 -5 15l11 8l71 -88l-8 -6q-10 7 -17 7q-1 0 -26.5 -17.5t-75 -35.5t-108.5 -18q-114 0 -184.5 64t-70.5 161q0 96 70 160.5
t180 64.5q49 0 94.5 -12.5t72.5 -25t32 -12.5q4 0 15 11l9 -5z" />
    <glyph glyph-name="d" unicode="d" horiz-adv-x="621" 
d="M90 0v12q14 4 18.5 9.5t4.5 19.5v349q0 14 -4.5 19.5t-18.5 9.5v12h210q136 0 203 -51.5t67 -163.5t-67 -164t-203 -52h-210zM192 364v-300h119q86 0 130.5 39t44.5 111t-44.5 111t-130.5 39h-119z" />
    <glyph glyph-name="e" unicode="e" horiz-adv-x="572" 
d="M90 0v12q14 4 18.5 9.5t4.5 19.5v349q0 14 -4.5 19.5t-18.5 9.5v12h351q13 0 19 5t10 19h13v-112h-12q-4 14 -9.5 18.5t-19.5 4.5h-250v-114h158q13 0 19 5t10 19h13v-112h-12q-4 14 -9.5 18.5t-19.5 4.5h-159v-121h266q14 0 19.5 4.5t9.5 18.5h13v-112h-12
q-4 14 -9.5 18.5t-19.5 4.5h-369z" />
    <glyph glyph-name="f" unicode="f" horiz-adv-x="539" 
d="M90 0v12q14 4 18.5 9.5t4.5 19.5v349q0 14 -4.5 19.5t-18.5 9.5v12h351q13 0 19 5t10 19h13v-112h-12q-4 14 -9.5 18.5t-19.5 4.5h-250v-114h158q13 0 19 5t10 19h13v-112h-12q-4 14 -9.5 18.5t-19.5 4.5h-159v-146q0 -14 4.5 -19.5t18.5 -9.5v-12h-125z" />
    <glyph glyph-name="g" unicode="g" horiz-adv-x="593" 
d="M467 299l-11 4q2 3 2 8q0 21 -47.5 42t-101.5 21q-82 0 -130 -43.5t-48 -115.5t49 -115.5t128 -43.5q60 0 148 45v54h-112q-14 0 -19.5 -4.5t-9.5 -18.5h-12v113h11q4 -14 9.5 -18.5t19.5 -4.5h199v-12q-14 -4 -18.5 -9.5t-4.5 -19.5v-78l22 -7v-15q-101 -90 -235 -90
q-114 0 -184 64.5t-70 160.5t69 160.5t180 64.5q49 0 94.5 -12.5t73 -25t31.5 -12.5q5 0 16 11l10 -5z" />
    <glyph glyph-name="h" unicode="h" horiz-adv-x="658" 
d="M192 188v-147q0 -14 4.5 -19.5t18.5 -9.5v-12h-125v12q14 4 18.5 9.5t4.5 19.5v349q0 14 -4.5 19.5t-18.5 9.5v12h125v-12q-14 -4 -18.5 -9.5t-4.5 -19.5v-137h274v137q0 14 -4.5 19.5t-18.5 9.5v12h125v-12q-14 -4 -19 -9.5t-5 -19.5v-349q0 -14 5 -19.5t19 -9.5v-12
h-125v12q14 4 18.5 9.5t4.5 19.5v147h-274z" />
    <glyph glyph-name="i" unicode="i" horiz-adv-x="306" 
d="M193 41q0 -14 4.5 -19.5t18.5 -9.5v-12h-125v12q14 4 18.5 9.5t4.5 19.5v349q0 14 -4.5 19.5t-18.5 9.5v12h125v-12q-14 -4 -18.5 -9.5t-4.5 -19.5v-349z" />
    <glyph glyph-name="j" unicode="j" horiz-adv-x="490" 
d="M375 166q0 -176 -167 -176q-44 0 -91.5 17t-50.5 17q-7 0 -17 -13l-12 3l39 108l11 -4q-1 -2 -1 -6q0 -18 37 -37t75 -19q62 0 80 30.5t18 106.5v197q0 14 -4.5 19.5t-18.5 9.5v12h125v-12q-14 -4 -18.5 -9.5t-4.5 -19.5v-224z" />
    <glyph glyph-name="k" unicode="k" horiz-adv-x="595" 
d="M192 240l197 144q19 13 19 21q0 10 -12 14v12h146v-12q-40 -19 -83 -50l-118 -85l174 -223q34 -43 50 -49v-12h-128v12q11 4 11 11q0 12 -17 32l-147 187l-92 -69v-132q0 -14 4.5 -19.5t18.5 -9.5v-12h-125v12q14 4 18.5 9.5t4.5 19.5v349q0 14 -4.5 19.5t-18.5 9.5v12
h125v-12q-14 -4 -18.5 -9.5t-4.5 -19.5v-150z" />
    <glyph glyph-name="l" unicode="l" horiz-adv-x="556" 
d="M192 66h276q14 0 19.5 4.5t9.5 18.5h12v-112h-11q-4 14 -9.5 18.5t-19.5 4.5h-379v12q14 4 18.5 9.5t4.5 19.5v349q0 14 -4.5 19.5t-18.5 9.5v12h125v-12q-14 -4 -18.5 -9.5t-4.5 -19.5v-324z" />
    <glyph glyph-name="m" unicode="m" horiz-adv-x="728" 
d="M174 41q0 -14 4.5 -19.5t18.5 -9.5v-12h-107v12q14 4 18.5 9.5t4.5 19.5v349q0 14 -4.5 19.5t-18.5 9.5v12h159v-12q-19 -6 -19 -19q0 -4 6 -15l122 -228l123 228q6 11 6 15q0 13 -19 19v12h169v-12q-14 -4 -18.5 -9.5t-4.5 -19.5v-349q0 -14 4.5 -19.5t18.5 -9.5v-12
h-125v12q14 4 18.5 9.5t4.5 19.5v312l-180 -330l-181 330v-312z" />
    <glyph glyph-name="n" unicode="n" horiz-adv-x="662" 
d="M488 125v265q0 14 -4.5 19.5t-18.5 9.5v12h106v-12q-14 -4 -18.5 -9.5t-4.5 -19.5v-349q0 -14 4.5 -19.5t18.5 -9.5v-12h-132v12q19 6 19 19q0 9 -6 15l-278 288v-293q0 -14 4.5 -19.5t18.5 -9.5v-12h-107v12q14 4 18.5 9.5t4.5 19.5v349q0 14 -4.5 19.5t-18.5 9.5v12
h159v-12q-19 -6 -19 -19q0 -9 6 -15z" />
    <glyph glyph-name="o" unicode="o" horiz-adv-x="602" 
d="M132 217q0 -74 46 -120t124 -46q75 0 121.5 46.5t46.5 119.5t-46 119t-123 46t-123 -46t-46 -119zM301 -9q-110 0 -180 64.5t-70 160.5t69.5 160.5t180.5 64.5t180.5 -64.5t69.5 -160.5t-70 -160.5t-180 -64.5z" />
    <glyph glyph-name="p" unicode="p" horiz-adv-x="563" 
d="M192 41q0 -14 4.5 -19.5t18.5 -9.5v-12h-125v12q14 4 18.5 9.5t4.5 19.5v349q0 14 -4.5 19.5t-18.5 9.5v12h238q88 0 135 -33t47 -92q0 -63 -48 -92t-146 -29h-124v-144zM352 364h-160v-113h160q83 0 83 57q0 56 -83 56z" />
    <glyph glyph-name="q" unicode="q" horiz-adv-x="602" 
d="M395 5q-48 -14 -92 -14q-112 0 -182 64.5t-70 160.5t69.5 160.5t180.5 64.5t180.5 -64.5t69.5 -160.5q0 -118 -106 -187l33 -38q9 -11 16 -11q5 0 14 4l7 -8l-73 -59l-7 8q8 11 8 17q0 3 -8 14zM353 58q-40 54 -93 54q-2 0 -5.5 -0.5t-5.5 -0.5l-2 10q27 12 54 12
q65 0 103 -53q66 48 66 135q0 74 -46 120t-122 46t-122.5 -46.5t-46.5 -119.5t46 -118.5t118 -45.5q21 0 56 7z" />
    <glyph glyph-name="r" unicode="r" horiz-adv-x="594" 
d="M362 364h-170v-113h170q84 0 84 57q0 56 -84 56zM338 431q88 0 134.5 -33t46.5 -92q0 -92 -101 -114l92 -145q24 -37 42 -37v-10h-126v10h3q12 0 12 9q0 1 -4 9l-101 158h-144v-145q0 -14 4.5 -19.5t18.5 -9.5v-12h-125v12q14 4 18.5 9.5t4.5 19.5v349q0 14 -4.5 19.5
t-18.5 9.5v12h248z" />
    <glyph glyph-name="s" unicode="s" horiz-adv-x="590" 
d="M119 147l12 -5q-3 -8 -3 -15q0 -9 21.5 -25.5t63 -31.5t85.5 -15q66 0 104.5 21.5t38.5 54.5q0 32 -31.5 42.5t-113.5 12.5q-107 3 -155 28t-48 87q0 60 57 99.5t153 39.5q42 0 80 -10t61.5 -19.5t28.5 -9.5q7 0 18 11l11 -5l-53 -101l-12 5q2 3 2 9q0 20 -42.5 38.5
t-98.5 18.5q-58 0 -95 -20t-37 -47q0 -8 2 -14.5t7 -11.5t11 -8t16 -5.5t19 -4t23.5 -2.5t26.5 -1.5t31.5 -1.5t33.5 -2q92 -6 133.5 -32.5t41.5 -86.5q0 -64 -62.5 -107t-159.5 -43q-53 0 -101 16t-74.5 32.5t-28.5 16.5q-6 0 -16 -9l-12 6z" />
    <glyph glyph-name="t" unicode="t" horiz-adv-x="553" 
d="M103 365q-14 0 -19.5 -4.5t-9.5 -18.5h-11v112h12q4 -14 9.5 -18.5t19.5 -4.5h344q14 0 19.5 4.5t9.5 18.5h13v-112h-12q-4 14 -9.5 18.5t-19.5 4.5h-135v-324q0 -14 4.5 -19.5t18.5 -9.5v-12h-125v12q14 4 18.5 9.5t4.5 19.5v324h-132z" />
    <glyph glyph-name="u" unicode="u" horiz-adv-x="644" 
d="M112 162v228q0 14 -4 19.5t-19 9.5v12h125v-12q-14 -4 -18.5 -9.5t-4.5 -19.5v-225q0 -57 31.5 -83.5t99.5 -26.5q69 0 100 26.5t31 83.5v225q0 14 -5 19.5t-19 9.5v12h125v-12q-14 -4 -18.5 -9.5t-4.5 -19.5v-228q0 -90 -48.5 -130.5t-160.5 -40.5q-113 0 -161.5 40
t-48.5 131z" />
    <glyph glyph-name="v" unicode="v" horiz-adv-x="546" 
d="M339 56q-5 -13 -5 -21q0 -20 22 -23v-12h-160v12q22 3 22 23q0 7 -6 21l-144 323q-14 29 -40 40v12h138v-12q-24 -5 -24 -23q0 -5 5 -18l129 -283l121 283q5 10 5 18q0 18 -23 23v12h138v-12q-27 -10 -41 -41z" />
    <glyph glyph-name="w" unicode="w" horiz-adv-x="819" 
d="M306 56q-6 -18 -6 -21q0 -20 22 -23v-12h-146v12q22 3 22 23q0 3 -6 21l-111 305q-18 51 -48 59v12h137v-12q-24 -5 -24 -22q0 -6 5 -19l99 -283l104 280q5 15 5 21q0 18 -22 23v12h153v-12q-22 -3 -22 -23q0 -7 5 -21l98 -280l95 283q5 14 5 19q0 17 -23 22v12h138v-12
q-21 -8 -31 -20.5t-18 -37.5l-110 -306q-5 -12 -5 -21q0 -20 22 -23v-12h-147v12q22 3 22 23q0 5 -6 21l-101 290z" />
    <glyph glyph-name="x" unicode="x" horiz-adv-x="523" 
d="M177 53q-13 -17 -13 -26q0 -7 15 -15v-12h-147v12q31 13 49 36l136 177l-116 158q-16 21 -48 36v12h147v-12q-15 -7 -15 -15q0 -10 13 -27l67 -90l68 90q15 22 15 27q0 13 -17 15v12h147v-12q-33 -14 -67 -60l-101 -131l130 -180q14 -20 49 -36v-12h-147v12q15 8 15 15
q0 9 -13 26l-82 111z" />
    <glyph glyph-name="y" unicode="y" horiz-adv-x="505" 
d="M210 178l-130 181q-32 44 -67 60v12h147v-12q-15 -3 -15 -14q0 -12 11 -28l94 -129l97 129q12 15 12 28q0 11 -16 14v12h148v-12q-34 -15 -67 -60l-136 -181v-137q0 -14 5 -19.5t19 -9.5v-12h-125v12q14 4 18.5 9.5t4.5 19.5v137z" />
    <glyph glyph-name="z" unicode="z" horiz-adv-x="509" 
d="M99 365q-14 0 -20 -4.5t-10 -18.5h-11v112h11q4 -14 9.5 -18.5t19.5 -4.5h363v-11l-270 -354h224q14 0 19.5 4.5t9.5 18.5h13v-112h-12q-4 14 -9.5 18.5t-19.5 4.5h-356v19l262 346h-223z" />
    <glyph glyph-name="braceleft" unicode="{" 
d="M417 669h-18q-67 0 -88 -26t-21 -98v-118q0 -77 -19.5 -114.5t-76.5 -53.5q57 -16 76.5 -53.5t19.5 -114.5v-118q0 -72 20 -98t85 -26q3 0 10.5 0.5t11.5 0.5v-52h-23q-100 0 -132 37.5t-32 142.5v119q0 75 -27.5 106t-95.5 31q-3 0 -10.5 -0.5t-11.5 -0.5v53
q4 0 11.5 -0.5t10.5 -0.5q68 0 95.5 31t27.5 106v118q0 105 32.5 143t131.5 38h23v-52z" />
    <glyph glyph-name="bar" unicode="|" 
d="M277 764v-1000h-53v1000h53z" />
    <glyph glyph-name="braceright" unicode="}" 
d="M271 540v-118q0 -75 27.5 -106t95.5 -31q3 0 10.5 0.5t11.5 0.5v-53q-4 0 -11.5 0.5t-10.5 0.5q-68 0 -95.5 -31t-27.5 -106v-119q0 -105 -32 -142.5t-132 -37.5h-23v52h19q66 0 87 25.5t21 97.5v118q0 77 19 114.5t77 53.5q-58 16 -77 53.5t-19 114.5v118q0 73 -20 99
t-85 26q-3 0 -10.5 -0.5t-11.5 -0.5v52h23q99 0 131.5 -38t32.5 -143z" />
    <glyph glyph-name="asciitilde" unicode="~" horiz-adv-x="833" 
d="M747 311q-98 -70 -189 -70q-11 0 -22 1t-22.5 3t-19.5 4t-21 6l-18 5.5t-20 7t-18 6.5q-94 34 -141 34q-78 0 -189 -78v55q103 71 189 71q50 0 141 -33q4 -1 20 -7t21 -7.5t18.5 -6t21 -6t19 -4t21.5 -3.5t20 -1q80 0 189 78v-55z" />
    <glyph glyph-name="exclamdown" unicode="&#xa1;" horiz-adv-x="347" 
d="M222 486q0 -20 -14 -34.5t-34 -14.5q-21 0 -35 14t-14 35q0 20 14.5 34t34.5 14t34 -14t14 -34zM104 0v12q24 3 25 30l21 284v5q0 29 -25 29v13h97v-13q-25 0 -25 -29v-5l22 -284q1 -27 24 -30v-12h-139z" />
    <glyph glyph-name="cent" unicode="&#xa2;" horiz-adv-x="627" 
d="M523 50l-10 -7q-13 10 -19 10q-2 0 -24 -13.5t-62.5 -26.5t-88.5 -13q-26 0 -66 8l-54 -134h-48l61 150q-57 22 -89 70t-32 108q0 86 63 142.5t162 56.5q20 0 47 -3l49 121h47l-53 -131l32.5 -12.5l24 -9.5t10.5 -3q8 0 20 12l10 -6l-56 -96l-10 6q3 7 3 14
q0 12 -12 19.5t-44 19.5l-107 -263q38 -6 51 -6q32 0 61.5 11t45 23.5t15.5 20.5q0 5 -4 17l10 7zM236 84l103 256q-4 0 -9.5 0.5t-8.5 1t-4 0.5q-72 0 -114 -40t-42 -103q0 -40 20 -71t55 -44z" />
    <glyph glyph-name="sterling" unicode="&#xa3;" horiz-adv-x="627" 
d="M96 -23v96q82 49 82 158q0 28 -1 49h-82v44h77q-3 28 -3 54q0 70 48 113t129 43q77 0 147 -40q14 -8 31.5 -20t27 -17.5t16.5 -5.5t21 8l9 -7l-78 -104l-9 7q2 12 2 19q0 25 -47.5 59.5t-106.5 34.5q-106 0 -106 -104q0 -8 3 -40h109v-44h-105q1 -9 1 -27
q0 -104 -68 -178h353q14 0 19.5 4.5t9.5 18.5h12v-121h-12q-4 14 -9.5 18.5t-19.5 4.5h-409q-14 0 -19.5 -4.5t-9.5 -18.5h-12z" />
    <glyph glyph-name="currency" unicode="&#xa4;" horiz-adv-x="606" 
d="M176 591q58 44 127 44q72 0 128 -44l100 100l32 -32l-100 -100q43 -58 43 -127q0 -68 -43 -126l100 -101l-32 -32l-100 100q-58 -44 -128 -44q-68 0 -127 44l-100 -100l-32 32l100 101q-44 60 -44 126q0 67 44 127l-100 100l32 32zM461 433q0 65 -45.5 111t-111.5 46
q-65 0 -112 -46.5t-47 -110.5q0 -65 47 -112t112 -47t111 47t46 112z" />
    <glyph glyph-name="yen" unicode="&#xa5;" horiz-adv-x="627" 
d="M247 0v12q14 4 18.5 9.5t4.5 19.5v166h-238v37h221l-55 74h-166v37h140l-73 99q-33 45 -67 60v11h140v-11q-15 -3 -15 -14q0 -13 12 -28l144 -194l143 194q11 14 11 28q0 11 -15 14v11h143v-11q-32 -14 -67 -60l-75 -99h142v-37h-170l-57 -74h227v-37h-246v-166
q0 -14 4.5 -19.5t18.5 -9.5v-12h-125z" />
    <glyph glyph-name="brokenbar" unicode="&#xa6;" 
d="M277 699v-370h-53v370h53zM277 199v-370h-53v370h53z" />
    <glyph glyph-name="section" unicode="&#xa7;" 
d="M153 41l9 -8q-8 -14 -8 -19q0 -15 31 -32.5t74 -17.5q33 0 51 14t18 38q0 10 -2.5 17.5t-9 14.5t-13 12.5t-19.5 12t-23 10.5t-29.5 12.5l-32.5 14.5q-72 32 -101.5 58.5t-29.5 70.5q0 39 21 62t68 35q-49 31 -49 91q0 49 37.5 78t104.5 29q40 0 72.5 -12.5t50 -25
t22.5 -12.5q6 0 19 5l8 -8l-81 -77l-8 9q7 14 7 18q0 15 -27.5 32.5t-66.5 17.5q-32 0 -51 -14.5t-19 -36.5q0 -33 48 -58l77 -34q70 -30 100.5 -58.5t30.5 -71.5q0 -39 -21 -61.5t-68 -34.5q54 -36 54 -93q0 -50 -37.5 -80t-101.5 -30q-43 0 -78.5 12.5t-55.5 25t-25 12.5
q-7 0 -20 -6l-8 8zM126 256q0 -37 52 -65q89 -49 135 -49q29 0 45 13t16 36q0 36 -53 66q-90 49 -132 49q-30 0 -46.5 -13.5t-16.5 -36.5z" />
    <glyph glyph-name="dieresis" unicode="&#xa8;" 
d="M109 569q0 20 14.5 34.5t33.5 14.5t34 -15t15 -34q0 -21 -14 -34.5t-35 -13.5q-20 0 -34 13.5t-14 34.5zM295 569q0 20 14.5 34.5t33.5 14.5t34 -15t15 -34q0 -21 -14 -34.5t-35 -13.5q-20 0 -34 13.5t-14 34.5z" />
    <glyph glyph-name="copyright" unicode="&#xa9;" horiz-adv-x="833" 
d="M416 711q150 0 255 -105q103 -103 103 -253t-103 -251q-109 -107 -255 -107t-252 106q-105 105 -105 252q0 146 107 255q101 103 250 103zM735 353q0 133 -92 225q-94 94 -227 94t-223 -92q-95 -97 -95 -227t94 -224t224 -94q131 0 228 95q91 89 91 223zM524 447
q-9 39 -37 60.5t-69 21.5q-59 0 -92.5 -46t-33.5 -131q0 -82 34 -127.5t92 -45.5q44 0 74 24.5t38 67.5h56q-5 -61 -53 -100t-118 -39q-86 0 -136 59t-50 164q0 100 53 159.5t138 59.5q66 0 110.5 -35t50.5 -92h-57z" />
    <glyph glyph-name="ordfeminine" unicode="&#xaa;" horiz-adv-x="380" 
d="M144 435q6 12 6 15q0 7 -9 10v8h93v-8q-9 -3 -9 -10q0 -3 6 -15l98 -190q12 -22 30 -29v-7h-85v7q8 4 8 10t-5 16l-18 34h-146l-17 -34q-4 -7 -4 -16q0 -6 8 -10v-7h-80v7q19 7 28 25zM131 315h109l-56 108z" />
    <glyph glyph-name="guillemotleft" unicode="&#xab;" horiz-adv-x="463" 
d="M398 114h-65l-118 148l118 148h64l-119 -147zM259 114h-65l-118 148l118 148h64l-119 -147z" />
    <glyph glyph-name="logicalnot" unicode="&#xac;" horiz-adv-x="833" 
d="M709 419v-245h-47v196h-538v49h585z" />
    <glyph glyph-name="registered" unicode="&#xae;" horiz-adv-x="833" 
d="M416 711q152 0 255 -105q103 -103 103 -253t-103 -251q-109 -107 -255 -107q-148 0 -252 106q-105 105 -105 252q0 146 107 255q101 103 250 103zM735 352q0 135 -91 226q-94 94 -228 94q-130 0 -222 -92q-96 -98 -96 -227q0 -130 94 -224t224 -94q131 0 228 95
q91 88 91 222zM427 565q86 0 128 -27.5t42 -86.5q0 -43 -26 -72.5t-71 -35.5l92 -190h-71l-87 181h-96v-181h-62v412h151zM415 523h-77v-148h77q63 0 90.5 15.5t27.5 56.5t-28 58.5t-90 17.5z" />
    <glyph glyph-name="macron" unicode="&#xaf;" 
d="M124 539v61h252v-61h-252z" />
    <glyph glyph-name="degree" unicode="&#xb0;" horiz-adv-x="329" 
d="M165 709q56 0 95.5 -40t39.5 -96t-39.5 -96t-96.5 -40t-96 39.5t-39 96.5t40 96.5t96 39.5zM266 573q0 42 -29.5 72t-71.5 30t-72 -30t-30 -72t30 -71.5t72 -29.5q43 0 72 29.5t29 71.5z" />
    <glyph glyph-name="plusminus" unicode="&#xb1;" horiz-adv-x="833" 
d="M441 571v-170h268v-48h-268v-170h-48v170h-269v48h269v170h48zM709 73v-48h-585v48h585z" />
    <glyph glyph-name="twosuperior" unicode="&#xb2;" horiz-adv-x="414" 
d="M51 195v7q0 80 98 137q18 11 48.5 25.5t41.5 20.5q21 12 30 23t9 30q0 23 -19.5 37.5t-50.5 14.5q-39 0 -70.5 -21t-31.5 -36q0 -3 2 -11l-7 -4l-51 62l6 4q8 -4 14 -4q4 0 10.5 3t18 10t20.5 12q44 24 97 24q54 0 85.5 -25.5t31.5 -67.5q0 -37 -24 -58.5t-80 -46.5
l-45.5 -22.5t-35.5 -23t-32 -31.5h213q9 0 13 2.5t6 11.5h8v-73h-8q-2 9 -6 11.5t-13 2.5h-250q-17 0 -20 -14h-8z" />
    <glyph glyph-name="threesuperior" unicode="&#xb3;" horiz-adv-x="414" 
d="M34 236l37 70l6 -3v-6q0 -9 21 -21q3 -2 5 -3q52 -29 107 -29q41 0 65.5 17.5t24.5 45.5q0 54 -90 54h-25.5t-15.5 -1.5t-10.5 -4.5t-2.5 -9h-7v69h7q1 -10 9.5 -12.5t32.5 -2.5h7q74 0 74 44q0 21 -20.5 33.5t-57.5 12.5q-39 0 -71 -17t-32 -29q0 -4 3 -11l-6 -5l-55 59
l6 5q10 -5 13 -5q4 0 22.5 11t51.5 21.5t72 10.5q59 0 93.5 -23.5t34.5 -62.5t-39 -62q32 -15 46.5 -32t14.5 -43q0 -44 -40.5 -74.5t-104.5 -30.5q-39 0 -74 10t-56 19.5t-25 9.5q-3 0 -13 -8z" />
    <glyph glyph-name="acute" unicode="&#xb4;" 
d="M164 494l141 146q27 29 47 29q16 0 26 -10t10 -25q0 -20 -30 -40l-161 -100h-33z" />
    <glyph glyph-name="mu" unicode="&#xb5;" horiz-adv-x="542" 
d="M168 520l-61 -289q-8 -37 -8 -68q0 -57 28.5 -88t81.5 -31q61 0 104.5 52t65.5 152l59 272h68l-80 -376q-11 -49 -11 -65q0 -32 33 -32q8 0 18 1l-10 -54q-19 -5 -42 -5q-67 0 -67 71v7q-43 -79 -146 -79q-92 0 -131 76l-56 -272h-68l154 728h68z" />
    <glyph glyph-name="paragraph" unicode="&#xb6;" 
d="M459 688h-62v-688h-40v688h-92v-688h-40v382q-85 4 -134.5 50t-49.5 120q0 76 52 123t140 47h226v-34z" />
    <glyph glyph-name="periodcentered" unicode="&#xb7;" horiz-adv-x="314" 
d="M108 262q0 20 14.5 34t34.5 14t34 -13.5t14 -34.5q0 -20 -14 -34t-34 -14t-34.5 14.5t-14.5 33.5z" />
    <glyph glyph-name="cedilla" unicode="&#xb8;" 
d="M134 -181l17 38q61 -35 109 -35q59 0 59 45q0 20 -14 32t-40 12q-2 0 -6 -0.5l-11.5 -1.5t-13.5 -2v93h31v-55q23 3 34 3q39 0 62 -22t23 -58q0 -39 -28.5 -62.5t-78.5 -23.5t-143 37z" />
    <glyph glyph-name="onesuperior" unicode="&#xb9;" horiz-adv-x="414" 
d="M259 524v-7q-15 -3 -15 -18v-265q0 -15 15 -18v-7h-86v7q15 3 15 18v216l-22 -8q-12 -4 -16 -15h-8v60h8q3 -8 10 -8q3 0 11 2l17 7v11q0 15 -15 18v7h86z" />
    <glyph glyph-name="ordmasculine" unicode="&#xba;" horiz-adv-x="397" 
d="M87 339q0 -44 30.5 -71.5t81.5 -27.5q50 0 80.5 27.5t30.5 71.5t-30.5 71.5t-80.5 27.5q-51 0 -81.5 -27.5t-30.5 -71.5zM199 204q-73 0 -119 38.5t-46 96.5q0 57 46 96t119 39t119 -39t46 -96q0 -58 -46.5 -96.5t-118.5 -38.5z" />
    <glyph glyph-name="guillemotright" unicode="&#xbb;" horiz-adv-x="463" 
d="M76 114l120 149l-118 147h64l117 -148l-117 -148h-66zM215 114l120 149l-119 147h65l117 -148l-117 -148h-66z" />
    <glyph glyph-name="onequarter" unicode="&#xbc;" horiz-adv-x="957" 
d="M247 524v-6q-9 -2 -11.5 -5.5t-2.5 -11.5v-248q0 -13 14 -16v-7h-82v7q9 2 12 5t3 11v202l-22 -8q-12 -4 -15 -14h-7v56h7q3 -7 10 -7q4 0 10 2l17 6v11q0 8 -3 11.5t-12 5.5v6h82zM228 -9l442 543h58l-440 -543h-60zM856 23q0 -8 3 -11t12 -5v-7h-80v7q14 3 14 16v35
h-178q-15 0 -19 -13h-7v51l170 175q5 5 5 11q0 5 -8 6v6h103v-6q-9 -2 -12 -5.5t-3 -11.5v-175h28q9 0 12.5 2.5t5.5 10.5h8v-64h-8q-4 13 -18 13h-28v-35zM806 95v159l-153 -159h153z" />
    <glyph glyph-name="onehalf" unicode="&#xbd;" horiz-adv-x="957" 
d="M247 524v-6q-9 -2 -11.5 -5.5t-2.5 -11.5v-248q0 -13 14 -16v-7h-82v7q9 2 12 5t3 11v202l-22 -8q-12 -4 -15 -14h-7v56h7q3 -7 10 -7q4 0 10 2l17 6v11q0 8 -3 11.5t-12 5.5v6h82zM228 -9l442 543h58l-440 -543h-60zM611 -13v6q0 75 93 129q18 10 49 24.5t37 17.5
q20 11 28.5 21.5t8.5 27.5q0 22 -18.5 35.5t-48.5 13.5q-37 0 -67 -19.5t-30 -33.5q0 -4 2 -10l-7 -4l-49 58l7 4q7 -4 13 -4q3 0 47 24q44 22 93 22q50 0 80.5 -24t30.5 -63q0 -35 -23 -54.5t-76 -43.5q-82 -36 -109 -72h204q9 0 12.5 2.5t5.5 10.5h8v-68h-8
q-2 8 -5.5 10.5t-12.5 2.5h-239q-15 0 -19 -13h-7z" />
    <glyph glyph-name="threequarters" unicode="&#xbe;" horiz-adv-x="957" 
d="M33 255l34 66l7 -3q-1 -2 -1 -6q0 -6 4.5 -9.5t20.5 -12.5q48 -27 102 -27q40 0 63 16.5t23 41.5q0 51 -86 51q-31 0 -40.5 -2t-10.5 -12h-7v65h7q1 -10 9 -12t31 -2h7q70 0 70 40q0 43 -74 43q-25 0 -49 -8.5t-37 -18.5t-13 -16q0 -3 3 -10l-5 -5l-53 56l6 4q2 -1 5 -2
t5 -2t3 -1q3 0 20.5 10.5t49 20.5t68.5 10q57 0 90 -22.5t33 -58.5q0 -35 -38 -58q59 -24 59 -70q0 -41 -38.5 -69t-100.5 -28q-37 0 -70.5 9t-53.5 18t-23 9q-5 0 -13 -8zM228 -9l442 543h58l-440 -543h-60zM856 23q0 -8 3 -11t12 -5v-7h-80v7q14 3 14 16v35h-178
q-15 0 -19 -13h-7v51l170 175q5 5 5 11q0 5 -8 6v6h103v-6q-9 -2 -12 -5.5t-3 -11.5v-175h28q9 0 12.5 2.5t5.5 10.5h8v-64h-8q-4 13 -18 13h-28v-35zM806 95v159l-153 -159h153z" />
    <glyph glyph-name="questiondown" unicode="&#xbf;" horiz-adv-x="474" 
d="M261 485q0 -20 -14 -34t-34 -14q-21 0 -34.5 13.5t-13.5 34.5q0 20 14 34t34 14q19 0 33.5 -14.5t14.5 -33.5zM266 370v-15l-25 -8q0 -61 -39 -114l-23 -29t-22.5 -29.5t-13 -24.5t-6.5 -28q0 -66 73 -66q40 0 70.5 22.5t30.5 36.5q0 5 -5 17l10 7l71 -77l-9 -9
q-2 0 -4 0.5t-3 1t-2 0.5q-6 0 -28 -16.5t-59 -32.5t-80 -16q-63 0 -102.5 36t-39.5 88q0 27 13 54t26.5 43.5t43.5 48.5q32 35 32 75v12l-17 8v15h108z" />
    <glyph glyph-name="Agrave" unicode="&#xc0;" horiz-adv-x="663" 
d="M28 0v12q17 6 26 15.5t16 25.5l189 417q9 20 9 27q0 11 -13 17v11h143v-11q-13 -6 -13 -17q0 -9 9 -27l194 -410q18 -37 46 -48v-12h-138v12q13 6 13 16q0 7 -9 27l-39 83h-274l-37 -83q-10 -20 -10 -27q0 -10 13 -16v-12h-125zM217 209h211l-106 230zM418 588h-33
l-161 100q-30 20 -30 40q0 15 10 25t26 10q20 0 47 -29z" />
    <glyph glyph-name="Aacute" unicode="&#xc1;" horiz-adv-x="663" 
d="M28 0v12q17 6 26 15.5t16 25.5l189 417q9 20 9 27q0 11 -13 17v11h143v-11q-13 -6 -13 -17q0 -9 9 -27l194 -410q18 -37 46 -48v-12h-138v12q13 6 13 16q0 7 -9 27l-39 83h-274l-37 -83q-10 -20 -10 -27q0 -10 13 -16v-12h-125zM217 209h211l-106 230zM246 588l141 146
q27 29 47 29q16 0 26 -10t10 -25q0 -20 -30 -40l-161 -100h-33z" />
    <glyph glyph-name="Acircumflex" unicode="&#xc2;" horiz-adv-x="663" 
d="M28 0v12q17 6 26 15.5t16 25.5l189 417q9 20 9 27q0 11 -13 17v11h143v-11q-13 -6 -13 -17q0 -9 9 -27l194 -410q18 -37 46 -48v-12h-138v12q13 6 13 16q0 7 -9 27l-39 83h-274l-37 -83q-10 -20 -10 -27q0 -10 13 -16v-12h-125zM217 209h211l-106 230zM190 588l113 170
h58l113 -170h-28l-114 102l-114 -102h-28z" />
    <glyph glyph-name="Atilde" unicode="&#xc3;" horiz-adv-x="663" 
d="M28 0v12q17 6 26 15.5t16 25.5l189 417q9 20 9 27q0 11 -13 17v11h143v-11q-13 -6 -13 -17q0 -9 9 -27l194 -410q18 -37 46 -48v-12h-138v12q13 6 13 16q0 7 -9 27l-39 83h-274l-37 -83q-10 -20 -10 -27q0 -10 13 -16v-12h-125zM217 209h211l-106 230zM472 733
q-19 -100 -95 -100q-14 0 -36 5l-53 14q-12 3 -24 3q-19 0 -29 -10t-18 -34h-25q18 103 96 103q16 0 31 -4l54 -14q20 -5 27 -5q18 0 28 9.5t18 32.5h26z" />
    <glyph glyph-name="Adieresis" unicode="&#xc4;" horiz-adv-x="663" 
d="M28 0v12q17 6 26 15.5t16 25.5l189 417q9 20 9 27q0 11 -13 17v11h143v-11q-13 -6 -13 -17q0 -9 9 -27l194 -410q18 -37 46 -48v-12h-138v12q13 6 13 16q0 7 -9 27l-39 83h-274l-37 -83q-10 -20 -10 -27q0 -10 13 -16v-12h-125zM217 209h211l-106 230zM191 663
q0 20 14.5 34.5t33.5 14.5t34 -15t15 -34q0 -21 -14 -34.5t-35 -13.5q-20 0 -34 13.5t-14 34.5zM377 663q0 20 14.5 34.5t33.5 14.5t34 -15t15 -34q0 -21 -14 -34.5t-35 -13.5q-20 0 -34 13.5t-14 34.5z" />
    <glyph glyph-name="Aring" unicode="&#xc5;" horiz-adv-x="663" 
d="M28 0v12q17 6 26 15.5t16 25.5l189 417q9 20 9 27q0 11 -13 17v11h143v-11q-13 -6 -13 -17q0 -9 9 -27l194 -410q18 -37 46 -48v-12h-138v12q13 6 13 16q0 7 -9 27l-39 83h-274l-37 -83q-10 -20 -10 -27q0 -10 13 -16v-12h-125zM217 209h211l-106 230zM258 676
q0 -31 21.5 -52t51.5 -21t51.5 21t21.5 52q0 30 -21.5 51.5t-51.5 21.5t-51.5 -21.5t-21.5 -51.5zM213 676q0 49 34.5 83t83.5 34t83.5 -34t34.5 -83t-34.5 -83.5t-83.5 -34.5t-83.5 34.5t-34.5 83.5z" />
    <glyph glyph-name="AE" unicode="&#xc6;" horiz-adv-x="974" 
d="M844 525q13 0 19 5.5t10 19.5h12v-113h-11q-4 14 -10 18.5t-20 4.5h-316v-158h208q13 0 19 5t10 19h13v-112h-12q-4 14 -9.5 18.5t-19.5 4.5h-209v-171h337q14 0 19.5 4.5t9.5 18.5h13v-112h-12q-4 14 -9.5 18.5t-19.5 4.5h-444v12q14 4 18.5 9.5t4.5 19.5v96h-264
l-57 -82q-10 -15 -10 -24q0 -13 14 -19v-12h-142v12q25 7 56 50l294 408q9 12 9 25t-13 19v11h512zM445 209v261h-22l-189 -261h211z" />
    <glyph glyph-name="Ccedilla" unicode="&#xc7;" horiz-adv-x="663" 
d="M545 373q3 8 3 14q0 10 -8 17t-28 18q-77 41 -152 41q-100 0 -159.5 -56t-59.5 -145q0 -90 61 -144.5t160 -54.5q49 0 96 19.5t70.5 40t23.5 29.5q0 5 -5 18l9 8l82 -102l-10 -7q-12 9 -20 9q-3 0 -8.5 -4l-16.5 -12t-22 -14q-94 -57 -203 -57q-135 0 -218.5 78
t-83.5 194q0 115 83 193t214 78q59 0 113 -15t86 -30t36 -15q7 0 20 13l10 -6l-63 -114zM228 -181l17 38q61 -35 109 -35q59 0 59 45q0 20 -14 32t-40 12q-2 0 -6 -0.5l-11.5 -1.5t-13.5 -2v93h31v-55q23 3 34 3q39 0 62 -22t23 -58q0 -39 -28.5 -62.5t-78.5 -23.5t-143 37z
" />
    <glyph glyph-name="Egrave" unicode="&#xc8;" horiz-adv-x="653" 
d="M544 66q14 0 19.5 4.5t9.5 18.5h12v-112h-11q-4 14 -9.5 18.5t-19.5 4.5h-444v12q14 4 18.5 9.5t4.5 19.5v443q0 14 -4.5 20t-18.5 10v11h421q13 0 19.5 5.5t10.5 19.5h11v-113h-10q-4 14 -10 18.5t-20 4.5h-316v-158h208q13 0 19 5t10 19h12v-112h-11q-4 14 -9.5 18.5
t-19.5 4.5h-209v-171h337zM423 588h-33l-161 100q-30 20 -30 40q0 15 10 25t26 10q20 0 47 -29z" />
    <glyph glyph-name="Eacute" unicode="&#xc9;" horiz-adv-x="653" 
d="M544 66q14 0 19.5 4.5t9.5 18.5h12v-112h-11q-4 14 -9.5 18.5t-19.5 4.5h-444v12q14 4 18.5 9.5t4.5 19.5v443q0 14 -4.5 20t-18.5 10v11h421q13 0 19.5 5.5t10.5 19.5h11v-113h-10q-4 14 -10 18.5t-20 4.5h-316v-158h208q13 0 19 5t10 19h12v-112h-11q-4 14 -9.5 18.5
t-19.5 4.5h-209v-171h337zM251 588l141 146q27 29 47 29q16 0 26 -10t10 -25q0 -20 -30 -40l-161 -100h-33z" />
    <glyph glyph-name="Ecircumflex" unicode="&#xca;" horiz-adv-x="653" 
d="M544 66q14 0 19.5 4.5t9.5 18.5h12v-112h-11q-4 14 -9.5 18.5t-19.5 4.5h-444v12q14 4 18.5 9.5t4.5 19.5v443q0 14 -4.5 20t-18.5 10v11h421q13 0 19.5 5.5t10.5 19.5h11v-113h-10q-4 14 -10 18.5t-20 4.5h-316v-158h208q13 0 19 5t10 19h12v-112h-11q-4 14 -9.5 18.5
t-19.5 4.5h-209v-171h337zM195 588l113 170h58l113 -170h-28l-114 102l-114 -102h-28z" />
    <glyph glyph-name="Edieresis" unicode="&#xcb;" horiz-adv-x="653" 
d="M544 66q14 0 19.5 4.5t9.5 18.5h12v-112h-11q-4 14 -9.5 18.5t-19.5 4.5h-444v12q14 4 18.5 9.5t4.5 19.5v443q0 14 -4.5 20t-18.5 10v11h421q13 0 19.5 5.5t10.5 19.5h11v-113h-10q-4 14 -10 18.5t-20 4.5h-316v-158h208q13 0 19 5t10 19h12v-112h-11q-4 14 -9.5 18.5
t-19.5 4.5h-209v-171h337zM196 663q0 20 14.5 34.5t33.5 14.5q20 0 34.5 -15t14.5 -34q0 -21 -14 -34.5t-35 -13.5q-20 0 -34 13.5t-14 34.5zM382 663q0 20 14.5 34.5t33.5 14.5q20 0 34.5 -15t14.5 -34q0 -21 -14 -34.5t-35 -13.5q-20 0 -34 13.5t-14 34.5z" />
    <glyph glyph-name="Igrave" unicode="&#xcc;" horiz-adv-x="332" 
d="M101 0v12q14 4 18.5 9.5t4.5 19.5v443q0 14 -4.5 20t-18.5 10v11h130v-11q-14 -4 -18.5 -10t-4.5 -20v-443q0 -14 4.5 -19.5t18.5 -9.5v-12h-130zM252 588h-33l-161 100q-30 20 -30 40q0 15 10 25t26 10q20 0 47 -29z" />
    <glyph glyph-name="Iacute" unicode="&#xcd;" horiz-adv-x="332" 
d="M101 0v12q14 4 18.5 9.5t4.5 19.5v443q0 14 -4.5 20t-18.5 10v11h130v-11q-14 -4 -18.5 -10t-4.5 -20v-443q0 -14 4.5 -19.5t18.5 -9.5v-12h-130zM80 588l141 146q27 29 47 29q16 0 26 -10t10 -25q0 -20 -30 -40l-161 -100h-33z" />
    <glyph glyph-name="Icircumflex" unicode="&#xce;" horiz-adv-x="332" 
d="M101 0v12q14 4 18.5 9.5t4.5 19.5v443q0 14 -4.5 20t-18.5 10v11h130v-11q-14 -4 -18.5 -10t-4.5 -20v-443q0 -14 4.5 -19.5t18.5 -9.5v-12h-130zM24 588l113 170h58l113 -170h-28l-114 102l-114 -102h-28z" />
    <glyph glyph-name="Idieresis" unicode="&#xcf;" horiz-adv-x="332" 
d="M101 0v12q14 4 18.5 9.5t4.5 19.5v443q0 14 -4.5 20t-18.5 10v11h130v-11q-14 -4 -18.5 -10t-4.5 -20v-443q0 -14 4.5 -19.5t18.5 -9.5v-12h-130zM25 663q0 20 14.5 34.5t33.5 14.5t34 -15t15 -34q0 -21 -14 -34.5t-35 -13.5q-20 0 -34 13.5t-14 34.5zM211 663
q0 20 14.5 34.5t33.5 14.5t34 -15t15 -34q0 -21 -14 -34.5t-35 -13.5q-20 0 -34 13.5t-14 34.5z" />
    <glyph glyph-name="Eth" unicode="&#xd0;" horiz-adv-x="727" 
d="M104 0v12q14 4 18.5 9.5t4.5 19.5v203h-122v51h122v189q0 14 -4.5 20t-18.5 10v11h246q84 0 139 -11.5t98 -47.5q84 -70 84 -203q0 -134 -84 -204q-43 -36 -98 -47.5t-139 -11.5h-246zM210 461v-166h193v-51h-193v-177h169q104 0 158 50.5t54 146.5q0 94 -54 145.5
t-158 51.5h-169z" />
    <glyph glyph-name="Ntilde" unicode="&#xd1;" horiz-adv-x="764" 
d="M523 0v12q19 6 19 19q0 7 -6 15l-348 393v-398q0 -14 5 -19.5t19 -9.5v-12h-113v12q14 4 18.5 9.5t4.5 19.5v443q0 14 -4.5 20t-18.5 10v11h178v-11q-19 -6 -19 -20q0 -9 6 -15l312 -342v347q0 14 -4.5 20t-18.5 10v11h112v-11q-14 -4 -18.5 -10t-4.5 -20v-443
q0 -14 4.5 -19.5t18.5 -9.5v-12h-142zM531 733q-19 -100 -95 -100q-14 0 -36 5l-53 14q-12 3 -24 3q-19 0 -29 -10t-18 -34h-25q18 103 96 103q16 0 31 -4l54 -14q20 -5 27 -5q18 0 28 9.5t18 32.5h26z" />
    <glyph glyph-name="Ograve" unicode="&#xd2;" horiz-adv-x="706" 
d="M141 262q0 -89 58 -144t155 -55q95 0 152.5 55.5t57.5 143.5t-57.5 143.5t-153.5 55.5t-154 -55.5t-58 -143.5zM353 -9q-130 0 -213.5 78t-83.5 194q0 115 83 193t214 78t214 -78t83 -193q0 -116 -83.5 -194t-213.5 -78zM439 588h-33l-161 100q-30 20 -30 40q0 15 10 25
t26 10q20 0 47 -29z" />
    <glyph glyph-name="Oacute" unicode="&#xd3;" horiz-adv-x="706" 
d="M141 262q0 -89 58 -144t155 -55q95 0 152.5 55.5t57.5 143.5t-57.5 143.5t-153.5 55.5t-154 -55.5t-58 -143.5zM353 -9q-130 0 -213.5 78t-83.5 194q0 115 83 193t214 78t214 -78t83 -193q0 -116 -83.5 -194t-213.5 -78zM267 588l141 146q27 29 47 29q16 0 26 -10t10 -25
q0 -20 -30 -40l-161 -100h-33z" />
    <glyph glyph-name="Ocircumflex" unicode="&#xd4;" horiz-adv-x="706" 
d="M141 262q0 -89 58 -144t155 -55q95 0 152.5 55.5t57.5 143.5t-57.5 143.5t-153.5 55.5t-154 -55.5t-58 -143.5zM353 -9q-130 0 -213.5 78t-83.5 194q0 115 83 193t214 78t214 -78t83 -193q0 -116 -83.5 -194t-213.5 -78zM211 588l113 170h58l113 -170h-28l-114 102
l-114 -102h-28z" />
    <glyph glyph-name="Otilde" unicode="&#xd5;" horiz-adv-x="706" 
d="M141 262q0 -89 58 -144t155 -55q95 0 152.5 55.5t57.5 143.5t-57.5 143.5t-153.5 55.5t-154 -55.5t-58 -143.5zM353 -9q-130 0 -213.5 78t-83.5 194q0 115 83 193t214 78t214 -78t83 -193q0 -116 -83.5 -194t-213.5 -78zM493 733q-19 -100 -95 -100q-14 0 -36 5l-53 14
q-12 3 -24 3q-19 0 -29 -10t-18 -34h-25q18 103 96 103q16 0 31 -4l54 -14q20 -5 27 -5q18 0 28 9.5t18 32.5h26z" />
    <glyph glyph-name="Odieresis" unicode="&#xd6;" horiz-adv-x="706" 
d="M141 262q0 -89 58 -144t155 -55q95 0 152.5 55.5t57.5 143.5t-57.5 143.5t-153.5 55.5t-154 -55.5t-58 -143.5zM353 -9q-130 0 -213.5 78t-83.5 194q0 115 83 193t214 78t214 -78t83 -193q0 -116 -83.5 -194t-213.5 -78zM212 663q0 20 14.5 34.5t33.5 14.5q20 0 34.5 -15
t14.5 -34q0 -21 -14 -34.5t-35 -13.5q-20 0 -34 13.5t-14 34.5zM398 663q0 20 14.5 34.5t33.5 14.5q20 0 34.5 -15t14.5 -34q0 -21 -14 -34.5t-35 -13.5q-20 0 -34 13.5t-14 34.5z" />
    <glyph glyph-name="multiply" unicode="&#xd7;" horiz-adv-x="833" 
d="M418 332l235 235l34 -34l-235 -235l235 -235l-34 -34l-235 235l-235 -235l-34 34l235 235l-235 235l34 34z" />
    <glyph glyph-name="Oslash" unicode="&#xd8;" horiz-adv-x="706" 
d="M534 481q55 -35 85.5 -93t30.5 -125q0 -115 -83.5 -193.5t-213.5 -78.5q-66 0 -142 28l-74 -105l-35 24l72 103q-56 38 -87 96.5t-31 125.5q0 117 83 194t219 77q74 0 139 -32l66 95l37 -22zM218 103l236 338q-49 21 -99 21q-97 0 -155.5 -55.5t-58.5 -144.5
q0 -102 77 -159zM490 418l-236 -337q44 -18 100 -18q94 0 152 55.5t58 143.5q0 105 -74 156z" />
    <glyph glyph-name="Ugrave" unicode="&#xd9;" horiz-adv-x="746" 
d="M123 202v282q0 14 -4.5 20t-18.5 10v11h130v-11q-14 -4 -18.5 -10t-4.5 -20v-282q0 -71 39.5 -103.5t126.5 -32.5q89 0 127.5 32.5t38.5 103.5v282q0 14 -4.5 20t-18.5 10v11h130v-11q-14 -4 -19 -10t-5 -20v-282q0 -111 -58.5 -160t-190.5 -49q-136 0 -193 49t-57 160z
M459 588h-33l-161 100q-30 20 -30 40q0 15 10 25t26 10q20 0 47 -29z" />
    <glyph glyph-name="Uacute" unicode="&#xda;" horiz-adv-x="746" 
d="M123 202v282q0 14 -4.5 20t-18.5 10v11h130v-11q-14 -4 -18.5 -10t-4.5 -20v-282q0 -71 39.5 -103.5t126.5 -32.5q89 0 127.5 32.5t38.5 103.5v282q0 14 -4.5 20t-18.5 10v11h130v-11q-14 -4 -19 -10t-5 -20v-282q0 -111 -58.5 -160t-190.5 -49q-136 0 -193 49t-57 160z
M287 588l141 146q27 29 47 29q16 0 26 -10t10 -25q0 -20 -30 -40l-161 -100h-33z" />
    <glyph glyph-name="Ucircumflex" unicode="&#xdb;" horiz-adv-x="746" 
d="M123 202v282q0 14 -4.5 20t-18.5 10v11h130v-11q-14 -4 -18.5 -10t-4.5 -20v-282q0 -71 39.5 -103.5t126.5 -32.5q89 0 127.5 32.5t38.5 103.5v282q0 14 -4.5 20t-18.5 10v11h130v-11q-14 -4 -19 -10t-5 -20v-282q0 -111 -58.5 -160t-190.5 -49q-136 0 -193 49t-57 160z
M231 588l113 170h58l113 -170h-28l-114 102l-114 -102h-28z" />
    <glyph glyph-name="Udieresis" unicode="&#xdc;" horiz-adv-x="746" 
d="M123 202v282q0 14 -4.5 20t-18.5 10v11h130v-11q-14 -4 -18.5 -10t-4.5 -20v-282q0 -71 39.5 -103.5t126.5 -32.5q89 0 127.5 32.5t38.5 103.5v282q0 14 -4.5 20t-18.5 10v11h130v-11q-14 -4 -19 -10t-5 -20v-282q0 -111 -58.5 -160t-190.5 -49q-136 0 -193 49t-57 160z
M232 663q0 20 14.5 34.5t33.5 14.5q20 0 34.5 -15t14.5 -34q0 -21 -14 -34.5t-35 -13.5q-20 0 -34 13.5t-14 34.5zM418 663q0 20 14.5 34.5t33.5 14.5q20 0 34.5 -15t14.5 -34q0 -21 -14 -34.5t-35 -13.5q-20 0 -34 13.5t-14 34.5z" />
    <glyph glyph-name="Yacute" unicode="&#xdd;" horiz-adv-x="572" 
d="M217 0v12q14 4 18.5 9.5t4.5 19.5v177l-171 236q-33 45 -68 60v11h152v-11q-15 -3 -15 -14t12 -28l135 -184l135 184q12 17 12 28t-15 14v11h152v-11q-33 -15 -67 -60l-179 -236v-177q0 -14 5 -19.5t19 -9.5v-12h-130zM200 588l141 146q27 29 47 29q16 0 26 -10t10 -25
q0 -20 -30 -40l-161 -100h-33z" />
    <glyph glyph-name="Thorn" unicode="&#xde;" horiz-adv-x="660" 
d="M207 419h173q216 0 216 -152q0 -77 -57 -112t-173 -35h-159v-79q0 -14 4.5 -19.5t19.5 -9.5v-12h-130v12q14 4 18.5 9.5t4.5 19.5v443q0 14 -4.5 20t-18.5 10v11h130v-11q-15 -4 -19.5 -10t-4.5 -20v-65zM207 346v-153h155q79 0 117 18.5t38 59.5t-39 58t-121 17h-150z
" />
    <glyph glyph-name="germandbls" unicode="&#xdf;" horiz-adv-x="1180" 
d="M119 147l12 -5q-3 -8 -3 -15q0 -9 21.5 -25.5t63 -31.5t85.5 -15q66 0 104.5 21.5t38.5 54.5q0 32 -31.5 42.5t-113.5 12.5q-107 3 -155 28t-48 87q0 60 57 99.5t153 39.5q42 0 80 -10t61.5 -19.5t28.5 -9.5q7 0 18 11l11 -5l-53 -101l-12 5q2 3 2 9q0 20 -42.5 38.5
t-98.5 18.5q-58 0 -95 -20t-37 -47q0 -8 2 -14.5t7 -11.5t11 -8t16 -5.5t19 -4t23.5 -2.5t26.5 -1.5t31.5 -1.5t33.5 -2q92 -6 133.5 -32.5t41.5 -86.5q0 -64 -62.5 -107t-159.5 -43q-53 0 -101 16t-74.5 32.5t-28.5 16.5q-6 0 -16 -9l-12 6zM709 147l12 -5q-3 -8 -3 -15
q0 -9 21.5 -25.5t63 -31.5t85.5 -15q66 0 104.5 21.5t38.5 54.5q0 32 -31.5 42.5t-113.5 12.5q-107 3 -155 28t-48 87q0 60 57 99.5t153 39.5q42 0 80 -10t61.5 -19.5t28.5 -9.5q7 0 18 11l11 -5l-53 -101l-12 5q2 3 2 9q0 20 -42.5 38.5t-98.5 18.5q-58 0 -95 -20t-37 -47
q0 -8 2 -14.5t7 -11.5t11 -8t16 -5.5t19 -4t23.5 -2.5t26.5 -1.5t31.5 -1.5t33.5 -2q92 -6 133.5 -32.5t41.5 -86.5q0 -64 -62.5 -107t-159.5 -43q-53 0 -101 16t-74.5 32.5t-28.5 16.5q-5 0 -16 -9l-12 6z" />
    <glyph glyph-name="agrave" unicode="&#xe0;" horiz-adv-x="576" 
d="M218 376q9 20 9 26q0 11 -13 17v12h140v-12q-13 -6 -13 -17q0 -6 9 -26l148 -316q18 -37 46 -48v-12h-129v12q13 6 13 16q0 9 -9 27l-27 57h-221l-26 -57q-6 -12 -6 -27q0 -11 12 -16v-12h-120v12q17 6 25.5 15.5t16.5 25.5zM198 177h166l-85 179zM374 494h-33l-161 100
q-30 20 -30 40q0 15 10 25t26 10q20 0 47 -29z" />
    <glyph glyph-name="aacute" unicode="&#xe1;" horiz-adv-x="576" 
d="M218 376q9 20 9 26q0 11 -13 17v12h140v-12q-13 -6 -13 -17q0 -6 9 -26l148 -316q18 -37 46 -48v-12h-129v12q13 6 13 16q0 9 -9 27l-27 57h-221l-26 -57q-6 -12 -6 -27q0 -11 12 -16v-12h-120v12q17 6 25.5 15.5t16.5 25.5zM198 177h166l-85 179zM202 494l141 146
q27 29 47 29q16 0 26 -10t10 -25q0 -20 -30 -40l-161 -100h-33z" />
    <glyph glyph-name="acircumflex" unicode="&#xe2;" horiz-adv-x="576" 
d="M218 376q9 20 9 26q0 11 -13 17v12h140v-12q-13 -6 -13 -17q0 -6 9 -26l148 -316q18 -37 46 -48v-12h-129v12q13 6 13 16q0 9 -9 27l-27 57h-221l-26 -57q-6 -12 -6 -27q0 -11 12 -16v-12h-120v12q17 6 25.5 15.5t16.5 25.5zM198 177h166l-85 179zM146 494l113 170h58
l113 -170h-28l-114 102l-114 -102h-28z" />
    <glyph glyph-name="atilde" unicode="&#xe3;" horiz-adv-x="576" 
d="M218 376q9 20 9 26q0 11 -13 17v12h140v-12q-13 -6 -13 -17q0 -6 9 -26l148 -316q18 -37 46 -48v-12h-129v12q13 6 13 16q0 9 -9 27l-27 57h-221l-26 -57q-6 -12 -6 -27q0 -11 12 -16v-12h-120v12q17 6 25.5 15.5t16.5 25.5zM198 177h166l-85 179zM428 639
q-19 -100 -95 -100q-14 0 -36 5l-53 14q-12 3 -24 3q-19 0 -29 -10t-18 -34h-25q18 103 96 103q16 0 31 -4l54 -14q20 -5 27 -5q18 0 28 9.5t18 32.5h26z" />
    <glyph glyph-name="adieresis" unicode="&#xe4;" horiz-adv-x="576" 
d="M218 376q9 20 9 26q0 11 -13 17v12h140v-12q-13 -6 -13 -17q0 -6 9 -26l148 -316q18 -37 46 -48v-12h-129v12q13 6 13 16q0 9 -9 27l-27 57h-221l-26 -57q-6 -12 -6 -27q0 -11 12 -16v-12h-120v12q17 6 25.5 15.5t16.5 25.5zM198 177h166l-85 179zM147 569
q0 20 14.5 34.5t33.5 14.5t34 -15t15 -34q0 -21 -14 -34.5t-35 -13.5q-20 0 -34 13.5t-14 34.5zM333 569q0 20 14.5 34.5t33.5 14.5t34 -15t15 -34q0 -21 -14 -34.5t-35 -13.5q-20 0 -34 13.5t-14 34.5z" />
    <glyph glyph-name="aring" unicode="&#xe5;" horiz-adv-x="576" 
d="M218 376q9 20 9 26q0 11 -13 17v12h140v-12q-13 -6 -13 -17q0 -6 9 -26l148 -316q18 -37 46 -48v-12h-129v12q13 6 13 16q0 9 -9 27l-27 57h-221l-26 -57q-6 -12 -6 -27q0 -11 12 -16v-12h-120v12q17 6 25.5 15.5t16.5 25.5zM198 177h166l-85 179zM171 602q0 49 34 83
t83 34t83.5 -34t34.5 -83t-34.5 -83.5t-83.5 -34.5t-83 34.5t-34 83.5zM215 602q0 -31 21.5 -52t51.5 -21t51.5 21t21.5 52q0 30 -21.5 51.5t-51.5 21.5t-51.5 -21.5t-21.5 -51.5z" />
    <glyph glyph-name="ae" unicode="&#xe6;" horiz-adv-x="839" 
d="M378 113h-203l-42 -58q-10 -13 -10 -25t14 -18v-12h-137v12q17 5 28 16t28 34l231 314q10 13 10 25t-14 18v12h423q24 0 29 24h13v-112h-12q-4 14 -9.5 18.5t-19.5 4.5h-250v-114h158q13 0 19 5t10 19h13v-112h-12q-4 14 -9.5 18.5t-19.5 4.5h-159v-121h267
q14 0 19.5 4.5t9.5 18.5h13v-112h-12q-4 14 -9.5 18.5t-19.5 4.5h-370v12q14 4 18.5 9.5t4.5 19.5v72zM378 181v185h-16l-136 -185h152z" />
    <glyph glyph-name="ccedilla" unicode="&#xe7;" horiz-adv-x="561" 
d="M466 300l-8 5q2 4 2 8q0 21 -49.5 42.5t-102.5 21.5q-82 0 -130.5 -45t-48.5 -117t49.5 -116t129.5 -44q41 0 79.5 15.5t57.5 32t19 23.5q0 3 -5 15l11 8l71 -88l-8 -6q-10 7 -17 7q-1 0 -26.5 -17.5t-75 -35.5t-108.5 -18q-114 0 -184.5 64t-70.5 161q0 96 70 160.5
t180 64.5q49 0 94.5 -12.5t72.5 -25t32 -12.5q4 0 15 11l9 -5zM177 -181l17 38q61 -35 109 -35q59 0 59 45q0 20 -14 32t-40 12q-2 0 -6 -0.5l-11.5 -1.5t-13.5 -2v93h31v-55q22 3 34 3q39 0 62 -22t23 -58q0 -39 -28.5 -62.5t-78.5 -23.5t-143 37z" />
    <glyph glyph-name="egrave" unicode="&#xe8;" horiz-adv-x="572" 
d="M90 0v12q14 4 18.5 9.5t4.5 19.5v349q0 14 -4.5 19.5t-18.5 9.5v12h351q13 0 19 5t10 19h13v-112h-12q-4 14 -9.5 18.5t-19.5 4.5h-250v-114h158q13 0 19 5t10 19h13v-112h-12q-4 14 -9.5 18.5t-19.5 4.5h-159v-121h266q14 0 19.5 4.5t9.5 18.5h13v-112h-12
q-4 14 -9.5 18.5t-19.5 4.5h-369zM382 494h-33l-161 100q-30 20 -30 40q0 15 10 25t26 10q20 0 47 -29z" />
    <glyph glyph-name="eacute" unicode="&#xe9;" horiz-adv-x="572" 
d="M90 0v12q14 4 18.5 9.5t4.5 19.5v349q0 14 -4.5 19.5t-18.5 9.5v12h351q13 0 19 5t10 19h13v-112h-12q-4 14 -9.5 18.5t-19.5 4.5h-250v-114h158q13 0 19 5t10 19h13v-112h-12q-4 14 -9.5 18.5t-19.5 4.5h-159v-121h266q14 0 19.5 4.5t9.5 18.5h13v-112h-12
q-4 14 -9.5 18.5t-19.5 4.5h-369zM210 494l141 146q27 29 47 29q16 0 26 -10t10 -25q0 -20 -30 -40l-161 -100h-33z" />
    <glyph glyph-name="ecircumflex" unicode="&#xea;" horiz-adv-x="572" 
d="M90 0v12q14 4 18.5 9.5t4.5 19.5v349q0 14 -4.5 19.5t-18.5 9.5v12h351q13 0 19 5t10 19h13v-112h-12q-4 14 -9.5 18.5t-19.5 4.5h-250v-114h158q13 0 19 5t10 19h13v-112h-12q-4 14 -9.5 18.5t-19.5 4.5h-159v-121h266q14 0 19.5 4.5t9.5 18.5h13v-112h-12
q-4 14 -9.5 18.5t-19.5 4.5h-369zM154 494l113 170h58l113 -170h-28l-114 102l-114 -102h-28z" />
    <glyph glyph-name="edieresis" unicode="&#xeb;" horiz-adv-x="572" 
d="M90 0v12q14 4 18.5 9.5t4.5 19.5v349q0 14 -4.5 19.5t-18.5 9.5v12h351q13 0 19 5t10 19h13v-112h-12q-4 14 -9.5 18.5t-19.5 4.5h-250v-114h158q13 0 19 5t10 19h13v-112h-12q-4 14 -9.5 18.5t-19.5 4.5h-159v-121h266q14 0 19.5 4.5t9.5 18.5h13v-112h-12
q-4 14 -9.5 18.5t-19.5 4.5h-369zM155 569q0 20 14.5 34.5t33.5 14.5t34 -15t15 -34q0 -21 -14 -34.5t-35 -13.5q-20 0 -34 13.5t-14 34.5zM341 569q0 20 14.5 34.5t33.5 14.5t34 -15t15 -34q0 -21 -14 -34.5t-35 -13.5q-20 0 -34 13.5t-14 34.5z" />
    <glyph glyph-name="igrave" unicode="&#xec;" horiz-adv-x="306" 
d="M193 41q0 -14 4.5 -19.5t18.5 -9.5v-12h-125v12q14 4 18.5 9.5t4.5 19.5v349q0 14 -4.5 19.5t-18.5 9.5v12h125v-12q-14 -4 -18.5 -9.5t-4.5 -19.5v-349zM239 494h-33l-161 100q-30 20 -30 40q0 15 10 25t26 10q20 0 47 -29z" />
    <glyph glyph-name="iacute" unicode="&#xed;" horiz-adv-x="306" 
d="M193 41q0 -14 4.5 -19.5t18.5 -9.5v-12h-125v12q14 4 18.5 9.5t4.5 19.5v349q0 14 -4.5 19.5t-18.5 9.5v12h125v-12q-14 -4 -18.5 -9.5t-4.5 -19.5v-349zM67 494l141 146q27 29 47 29q16 0 26 -10t10 -25q0 -20 -30 -40l-161 -100h-33z" />
    <glyph glyph-name="icircumflex" unicode="&#xee;" horiz-adv-x="306" 
d="M193 41q0 -14 4.5 -19.5t18.5 -9.5v-12h-125v12q14 4 18.5 9.5t4.5 19.5v349q0 14 -4.5 19.5t-18.5 9.5v12h125v-12q-14 -4 -18.5 -9.5t-4.5 -19.5v-349zM11 494l113 170h58l113 -170h-28l-114 102l-114 -102h-28z" />
    <glyph glyph-name="idieresis" unicode="&#xef;" horiz-adv-x="306" 
d="M193 41q0 -14 4.5 -19.5t18.5 -9.5v-12h-125v12q14 4 18.5 9.5t4.5 19.5v349q0 14 -4.5 19.5t-18.5 9.5v12h125v-12q-14 -4 -18.5 -9.5t-4.5 -19.5v-349zM12 569q0 20 14.5 34.5t33.5 14.5q20 0 34.5 -15t14.5 -34q0 -21 -14 -34.5t-35 -13.5q-20 0 -34 13.5t-14 34.5z
M198 569q0 20 14.5 34.5t33.5 14.5q20 0 34.5 -15t14.5 -34q0 -21 -14 -34.5t-35 -13.5q-20 0 -34 13.5t-14 34.5z" />
    <glyph glyph-name="ntilde" unicode="&#xf1;" horiz-adv-x="662" 
d="M488 125v265q0 14 -4.5 19.5t-18.5 9.5v12h106v-12q-14 -4 -18.5 -9.5t-4.5 -19.5v-349q0 -14 4.5 -19.5t18.5 -9.5v-12h-132v12q19 6 19 19q0 9 -6 15l-278 288v-293q0 -14 4.5 -19.5t18.5 -9.5v-12h-107v12q14 4 18.5 9.5t4.5 19.5v349q0 14 -4.5 19.5t-18.5 9.5v12
h159v-12q-19 -6 -19 -19q0 -9 6 -15zM480 639q-19 -100 -95 -100q-14 0 -36 5l-53 14q-12 3 -24 3q-19 0 -29 -10t-18 -34h-25q18 103 96 103q16 0 31 -4l54 -14q20 -5 27 -5q18 0 28 9.5t18 32.5h26z" />
    <glyph glyph-name="ograve" unicode="&#xf2;" horiz-adv-x="602" 
d="M132 217q0 -74 46 -120t124 -46q75 0 121.5 46.5t46.5 119.5t-46 119t-123 46t-123 -46t-46 -119zM301 -9q-110 0 -180 64.5t-70 160.5t69.5 160.5t180.5 64.5t180.5 -64.5t69.5 -160.5t-70 -160.5t-180 -64.5zM387 494h-33l-161 100q-30 20 -30 40q0 15 10 25t26 10
q20 0 47 -29z" />
    <glyph glyph-name="oacute" unicode="&#xf3;" horiz-adv-x="602" 
d="M132 217q0 -74 46 -120t124 -46q75 0 121.5 46.5t46.5 119.5t-46 119t-123 46t-123 -46t-46 -119zM301 -9q-110 0 -180 64.5t-70 160.5t69.5 160.5t180.5 64.5t180.5 -64.5t69.5 -160.5t-70 -160.5t-180 -64.5zM215 494l141 146q27 29 47 29q16 0 26 -10t10 -25
q0 -20 -30 -40l-161 -100h-33z" />
    <glyph glyph-name="ocircumflex" unicode="&#xf4;" horiz-adv-x="602" 
d="M132 217q0 -74 46 -120t124 -46q75 0 121.5 46.5t46.5 119.5t-46 119t-123 46t-123 -46t-46 -119zM301 -9q-110 0 -180 64.5t-70 160.5t69.5 160.5t180.5 64.5t180.5 -64.5t69.5 -160.5t-70 -160.5t-180 -64.5zM159 494l113 170h58l113 -170h-28l-114 102l-114 -102h-28z
" />
    <glyph glyph-name="otilde" unicode="&#xf5;" horiz-adv-x="602" 
d="M132 217q0 -74 46 -120t124 -46q75 0 121.5 46.5t46.5 119.5t-46 119t-123 46t-123 -46t-46 -119zM301 -9q-110 0 -180 64.5t-70 160.5t69.5 160.5t180.5 64.5t180.5 -64.5t69.5 -160.5t-70 -160.5t-180 -64.5zM441 639q-19 -100 -95 -100q-14 0 -36 5l-53 14
q-12 3 -24 3q-19 0 -29 -10t-18 -34h-25q18 103 96 103q16 0 31 -4l54 -14q20 -5 27 -5q18 0 28 9.5t18 32.5h26z" />
    <glyph glyph-name="odieresis" unicode="&#xf6;" horiz-adv-x="602" 
d="M132 217q0 -74 46 -120t124 -46q75 0 121.5 46.5t46.5 119.5t-46 119t-123 46t-123 -46t-46 -119zM301 -9q-110 0 -180 64.5t-70 160.5t69.5 160.5t180.5 64.5t180.5 -64.5t69.5 -160.5t-70 -160.5t-180 -64.5zM160 569q0 20 14.5 34.5t33.5 14.5q20 0 34.5 -15t14.5 -34
q0 -21 -14 -34.5t-35 -13.5q-20 0 -34 13.5t-14 34.5zM346 569q0 20 14.5 34.5t33.5 14.5q20 0 34.5 -15t14.5 -34q0 -21 -14 -34.5t-35 -13.5q-20 0 -34 13.5t-14 34.5z" />
    <glyph glyph-name="divide" unicode="&#xf7;" horiz-adv-x="833" 
d="M417 523q22 0 37 -15.5t15 -37.5q0 -21 -15 -36.5t-37 -15.5t-37 15t-15 37t15.5 37.5t36.5 15.5zM709 322v-48h-585v48h585zM417 178q22 0 37 -15t15 -37q0 -21 -15 -36.5t-37 -15.5t-37 15t-15 37t15.5 37t36.5 15z" />
    <glyph glyph-name="oslash" unicode="&#xf8;" horiz-adv-x="602" 
d="M453 397q98 -65 98 -181q0 -96 -70 -160.5t-180 -64.5q-60 0 -118 23l-62 -88l-34 19l63 89q-47 30 -73 78t-26 104q0 96 69.5 160.5t180.5 64.5q63 0 119 -25l55 77l34 -18zM384 364q-37 18 -81 18q-79 0 -125 -45.5t-46 -119.5q0 -79 56 -129zM221 67q38 -16 78 -16
q77 0 124 46.5t47 119.5q0 78 -54 126z" />
    <glyph glyph-name="ugrave" unicode="&#xf9;" horiz-adv-x="644" 
d="M112 162v228q0 14 -4 19.5t-19 9.5v12h125v-12q-14 -4 -18.5 -9.5t-4.5 -19.5v-225q0 -57 31.5 -83.5t99.5 -26.5q69 0 100 26.5t31 83.5v225q0 14 -5 19.5t-19 9.5v12h125v-12q-14 -4 -18.5 -9.5t-4.5 -19.5v-228q0 -90 -48.5 -130.5t-160.5 -40.5q-113 0 -161.5 40
t-48.5 131zM408 494h-33l-161 100q-30 20 -30 40q0 15 10 25t26 10q20 0 47 -29z" />
    <glyph glyph-name="uacute" unicode="&#xfa;" horiz-adv-x="644" 
d="M112 162v228q0 14 -4 19.5t-19 9.5v12h125v-12q-14 -4 -18.5 -9.5t-4.5 -19.5v-225q0 -57 31.5 -83.5t99.5 -26.5q69 0 100 26.5t31 83.5v225q0 14 -5 19.5t-19 9.5v12h125v-12q-14 -4 -18.5 -9.5t-4.5 -19.5v-228q0 -90 -48.5 -130.5t-160.5 -40.5q-113 0 -161.5 40
t-48.5 131zM236 494l141 146q27 29 47 29q16 0 26 -10t10 -25q0 -20 -30 -40l-161 -100h-33z" />
    <glyph glyph-name="ucircumflex" unicode="&#xfb;" horiz-adv-x="644" 
d="M112 162v228q0 14 -4 19.5t-19 9.5v12h125v-12q-14 -4 -18.5 -9.5t-4.5 -19.5v-225q0 -57 31.5 -83.5t99.5 -26.5q69 0 100 26.5t31 83.5v225q0 14 -5 19.5t-19 9.5v12h125v-12q-14 -4 -18.5 -9.5t-4.5 -19.5v-228q0 -90 -48.5 -130.5t-160.5 -40.5q-113 0 -161.5 40
t-48.5 131zM180 494l113 170h58l113 -170h-28l-114 102l-114 -102h-28z" />
    <glyph glyph-name="udieresis" unicode="&#xfc;" horiz-adv-x="644" 
d="M112 162v228q0 14 -4 19.5t-19 9.5v12h125v-12q-14 -4 -18.5 -9.5t-4.5 -19.5v-225q0 -57 31.5 -83.5t99.5 -26.5q69 0 100 26.5t31 83.5v225q0 14 -5 19.5t-19 9.5v12h125v-12q-14 -4 -18.5 -9.5t-4.5 -19.5v-228q0 -90 -48.5 -130.5t-160.5 -40.5q-113 0 -161.5 40
t-48.5 131zM181 569q0 20 14.5 34.5t33.5 14.5t34 -15t15 -34q0 -21 -14 -34.5t-35 -13.5q-20 0 -34 13.5t-14 34.5zM367 569q0 20 14.5 34.5t33.5 14.5t34 -15t15 -34q0 -21 -14 -34.5t-35 -13.5q-20 0 -34 13.5t-14 34.5z" />
    <glyph glyph-name="yacute" unicode="&#xfd;" horiz-adv-x="505" 
d="M210 178l-130 181q-32 44 -67 60v12h147v-12q-15 -3 -15 -14q0 -12 11 -28l94 -129l97 129q12 15 12 28q0 11 -16 14v12h148v-12q-34 -15 -67 -60l-136 -181v-137q0 -14 5 -19.5t19 -9.5v-12h-125v12q14 4 18.5 9.5t4.5 19.5v137zM167 494l141 146q27 29 47 29
q16 0 26 -10t10 -25q0 -20 -30 -40l-161 -100h-33z" />
    <glyph glyph-name="ydieresis" unicode="&#xff;" horiz-adv-x="505" 
d="M210 178l-130 181q-32 44 -67 60v12h147v-12q-15 -3 -15 -14q0 -12 11 -28l94 -129l97 129q12 15 12 28q0 11 -16 14v12h148v-12q-34 -15 -67 -60l-136 -181v-137q0 -14 5 -19.5t19 -9.5v-12h-125v12q14 4 18.5 9.5t4.5 19.5v137zM112 569q0 20 14.5 34.5t33.5 14.5
q20 0 34.5 -15t14.5 -34q0 -21 -14 -34.5t-35 -13.5q-20 0 -34 13.5t-14 34.5zM298 569q0 20 14.5 34.5t33.5 14.5q20 0 34.5 -15t14.5 -34q0 -21 -14 -34.5t-35 -13.5q-20 0 -34 13.5t-14 34.5z" />
    <glyph glyph-name="dotlessi" unicode="&#x131;" horiz-adv-x="306" 
d="M193 41q0 -14 4.5 -19.5t18.5 -9.5v-12h-125v12q14 4 18.5 9.5t4.5 19.5v349q0 14 -4.5 19.5t-18.5 9.5v12h125v-12q-14 -4 -18.5 -9.5t-4.5 -19.5v-349z" />
    <glyph glyph-name="Lslash" unicode="&#x141;" horiz-adv-x="641" 
d="M549 66q14 0 19.5 4.5t9.5 18.5h12v-112h-11q-4 14 -9.5 18.5t-19.5 4.5h-444v12q14 4 18.5 9.5t4.5 19.5v169l-124 -87v60l124 87v214q0 14 -4.5 20t-18.5 10v11h129v-11q-14 -4 -18.5 -10t-4.5 -20v-172l189 133v-61l-189 -132v-186h337z" />
    <glyph glyph-name="lslash" unicode="&#x142;" horiz-adv-x="561" 
d="M197 66h275q14 0 19.5 4.5t9.5 18.5h13v-112h-12q-4 14 -9.5 18.5t-19.5 4.5h-378v12q14 4 18.5 9.5t4.5 19.5v125l-113 -78v52l113 79v171q0 14 -4.5 19.5t-18.5 9.5v12h125v-12q-14 -4 -18.5 -9.5t-4.5 -19.5v-130l158 112v-55l-158 -111v-140z" />
    <glyph glyph-name="OE" unicode="&#x152;" horiz-adv-x="1096" 
d="M141 262q0 -89 58 -144t155 -55q95 0 152.5 55.5t57.5 143.5t-57.5 143.5t-153.5 55.5t-154 -55.5t-58 -143.5zM568 71q-86 -80 -215 -80q-130 0 -213.5 78t-83.5 194q0 115 83 193t214 78q128 0 215 -78v69h398q13 0 19 5.5t10 19.5h13v-113h-12q-4 14 -9.5 18.5
t-19.5 4.5h-316v-158h208q13 0 19 5t10 19h12v-112h-11q-4 14 -10 18.5t-20 4.5h-208v-171h336q14 0 19.5 4.5t9.5 18.5h13v-112h-12q-4 14 -9.5 18.5t-19.5 4.5h-420v71z" />
    <glyph glyph-name="oe" unicode="&#x153;" horiz-adv-x="932" 
d="M132 217q0 -74 46 -120t124 -46q75 0 121.5 46.5t46.5 119.5t-46 119t-123 46t-123 -46t-46 -119zM483 58q-73 -67 -182 -67q-110 0 -180 64.5t-70 160.5t69.5 160.5t180.5 64.5q107 0 182 -64v54h317q24 0 29 24h13v-112h-12q-4 14 -9.5 18.5t-19.5 4.5h-250v-114h158
q13 0 19 5t10 19h13v-112h-12q-4 14 -9.5 18.5t-19.5 4.5h-159v-121h267q14 0 19.5 4.5t9.5 18.5h12v-112h-11q-4 14 -9.5 18.5t-19.5 4.5h-336v58z" />
    <glyph glyph-name="Scaron" unicode="&#x160;" horiz-adv-x="649" 
d="M56 58l-10 6l75 109l9 -7q-4 -11 -4 -18q0 -10 24.5 -30t74.5 -38t104 -18q80 0 126 27t46 69q0 41 -39.5 56t-133.5 17q-127 4 -185 33.5t-58 101.5q0 70 70 118.5t180 48.5q46 0 91.5 -12t75 -24.5t35.5 -12.5q8 0 21 13l10 -6l-63 -113l-10 6q3 4 3 10q0 25 -51 47.5
t-118 22.5q-72 0 -116 -25t-44 -61q0 -14 4.5 -25t15.5 -17.5t21 -11t32 -7t36 -3t43.5 -2t46.5 -2.5q111 -7 163 -41t52 -105t-75 -122.5t-187 -51.5q-50 0 -97 12t-74 26.5l-49 26.5t-27 12q-6 0 -18 -9zM467 758l-113 -170h-58l-113 170h28l114 -103l114 103h28z" />
    <glyph glyph-name="scaron" unicode="&#x161;" horiz-adv-x="590" 
d="M119 147l12 -5q-3 -8 -3 -15q0 -9 21.5 -25.5t63 -31.5t85.5 -15q66 0 104.5 21.5t38.5 54.5q0 32 -31.5 42.5t-113.5 12.5q-107 3 -155 28t-48 87q0 60 57 99.5t153 39.5q42 0 80 -10t61.5 -19.5t28.5 -9.5q7 0 18 11l11 -5l-53 -101l-12 5q2 3 2 9q0 20 -42.5 38.5
t-98.5 18.5q-58 0 -95 -20t-37 -47q0 -8 2 -14.5t7 -11.5t11 -8t16 -5.5t19 -4t23.5 -2.5t26.5 -1.5t31.5 -1.5t33.5 -2q92 -6 133.5 -32.5t41.5 -86.5q0 -64 -62.5 -107t-159.5 -43q-53 0 -101 16t-74.5 32.5t-28.5 16.5q-6 0 -16 -9l-12 6zM437 664l-113 -170h-58
l-113 170h28l114 -103l114 103h28z" />
    <glyph glyph-name="Ydieresis" unicode="&#x178;" horiz-adv-x="572" 
d="M217 0v12q14 4 18.5 9.5t4.5 19.5v177l-171 236q-33 45 -68 60v11h152v-11q-15 -3 -15 -14t12 -28l135 -184l135 184q12 17 12 28t-15 14v11h152v-11q-33 -15 -67 -60l-179 -236v-177q0 -14 5 -19.5t19 -9.5v-12h-130zM145 663q0 20 14.5 34.5t33.5 14.5t34 -15t15 -34
q0 -21 -14 -34.5t-35 -13.5q-20 0 -34 13.5t-14 34.5zM331 663q0 20 14.5 34.5t33.5 14.5t34 -15t15 -34q0 -21 -14 -34.5t-35 -13.5q-20 0 -34 13.5t-14 34.5z" />
    <glyph glyph-name="Zcaron" unicode="&#x17d;" horiz-adv-x="602" 
d="M101 459q-14 0 -19.5 -4.5t-9.5 -18.5h-13v113h12q4 -14 9.5 -19t19.5 -5h441v-11l-341 -448h295q14 0 19.5 4.5t9.5 18.5h13v-112h-12q-4 14 -9.5 18.5t-19.5 4.5h-434v19l335 440h-296zM443 758l-113 -170h-58l-113 170h28l114 -103l114 103h28z" />
    <glyph glyph-name="zcaron" unicode="&#x17e;" horiz-adv-x="509" 
d="M99 365q-14 0 -20 -4.5t-10 -18.5h-11v112h11q4 -14 9.5 -18.5t19.5 -4.5h363v-11l-270 -354h224q14 0 19.5 4.5t9.5 18.5h13v-112h-12q-4 14 -9.5 18.5t-19.5 4.5h-356v19l262 346h-223zM397 664l-113 -170h-58l-113 170h28l114 -103l114 103h28z" />
    <glyph glyph-name="florin" unicode="&#x192;" horiz-adv-x="627" 
d="M149 254v51h128l11 64q15 85 49.5 125.5t96.5 40.5q31 0 67.5 -11.5t41.5 -11.5q9 0 19 13l13 -3l-37 -124l-12 3q-2 29 -24.5 47t-57.5 18q-38 0 -54.5 -24t-25.5 -77l-10 -60h136v-51h-146l-48 -272q-15 -85 -49 -125.5t-97 -40.5q-31 0 -67.5 12t-41.5 12
q-9 0 -19 -13l-13 3l38 123l11 -3q1 -28 24.5 -46t58.5 -18q38 0 54 23.5t25 77.5l47 267h-118z" />
    <glyph glyph-name="circumflex" unicode="&#x2c6;" 
d="M108 494l113 170h58l113 -170h-28l-114 102l-114 -102h-28z" />
    <glyph glyph-name="caron" unicode="&#x2c7;" 
d="M392 664l-113 -170h-58l-113 170h28l114 -103l114 103h28z" />
    <glyph glyph-name="breve" unicode="&#x2d8;" 
d="M107 645h25q9 -37 37 -53t81 -16q102 0 117 69h25q-20 -133 -142 -133q-59 0 -96 34t-47 99z" />
    <glyph glyph-name="dotaccent" unicode="&#x2d9;" 
d="M199 569q0 21 15.5 36.5t35.5 15.5t35.5 -16t15.5 -36q0 -21 -15 -36t-36 -15t-36 15t-15 36z" />
    <glyph glyph-name="ring" unicode="&#x2da;" 
d="M133 602q0 49 34 83t83 34t83.5 -34t34.5 -83t-34.5 -83.5t-83.5 -34.5t-83 34.5t-34 83.5zM177 602q0 -31 21.5 -52t51.5 -21t51.5 21t21.5 52q0 30 -21.5 51.5t-51.5 21.5t-51.5 -21.5t-21.5 -51.5z" />
    <glyph glyph-name="ogonek" unicode="&#x2db;" 
d="M305 15q-89 -69 -89 -130q0 -27 14 -42.5t36 -15.5q39 0 58 35l14 -9q-37 -72 -103 -72q-35 0 -56.5 20t-21.5 50q0 84 124 164h24z" />
    <glyph glyph-name="tilde" unicode="&#x2dc;" 
d="M390 639q-19 -100 -95 -100q-14 0 -36 5l-53 14q-12 3 -24 3q-19 0 -29 -10t-18 -34h-25q18 103 96 103q16 0 31 -4l54 -14q20 -5 27 -5q18 0 28 9.5t18 32.5h26z" />
    <glyph glyph-name="hungarumlaut" unicode="&#x2dd;" 
d="M156 494l70 136q21 39 45 39q14 0 23.5 -9.5t9.5 -22.5q0 -16 -20 -38l-100 -105h-28zM290 494l70 136q21 39 45 39q14 0 23.5 -9.5t9.5 -22.5q0 -16 -20 -38l-99 -105h-29z" />
    <glyph glyph-name="endash" unicode="&#x2013;" 
d="M0 235v54h500v-54h-500z" />
    <glyph glyph-name="emdash" unicode="&#x2014;" horiz-adv-x="1000" 
d="M0 235v54h1000v-54h-1000z" />
    <glyph glyph-name="quoteleft" unicode="&#x2018;" horiz-adv-x="301" 
d="M211 502q-36 -20 -56 -43t-20 -42q0 -9 2.5 -11t13.5 -3q2 -1 4 -1q41 -6 41 -42q0 -20 -14 -34.5t-35 -14.5q-25 0 -41.5 20t-16.5 53q0 98 122 149v-31z" />
    <glyph glyph-name="quoteright" unicode="&#x2019;" horiz-adv-x="301" 
d="M90 343q76 41 76 84q0 9 -3 11t-13 3q-3 1 -5 1q-40 6 -40 43q0 20 14 34.5t35 14.5q25 0 41.5 -20t16.5 -53q0 -47 -31 -86t-91 -64v32z" />
    <glyph glyph-name="quotesinglbase" unicode="&#x201a;" horiz-adv-x="301" 
d="M90 -99q36 20 56 43t20 42q0 9 -3 11t-13 3q-3 1 -5 1q-40 6 -40 43q0 20 14 34.5t35 14.5q25 0 41.5 -20.5t16.5 -53.5q0 -98 -122 -149v31z" />
    <glyph glyph-name="quotedblleft" unicode="&#x201c;" horiz-adv-x="492" 
d="M211 502q-36 -20 -56 -43t-20 -42q0 -9 2.5 -11t13.5 -3q2 -1 4 -1q41 -6 41 -42q0 -20 -14 -34.5t-35 -14.5q-25 0 -41.5 20t-16.5 53q0 98 122 149v-31zM403 502q-77 -42 -77 -85q0 -9 3 -11t13 -3q3 -1 5 -1q40 -6 40 -42q0 -20 -14 -34.5t-35 -14.5q-25 0 -41.5 20
t-16.5 53q0 97 123 149v-31z" />
    <glyph glyph-name="quotedblright" unicode="&#x201d;" horiz-adv-x="492" 
d="M281 342q36 20 56 43t20 42q0 9 -2.5 11t-13.5 3q-2 1 -4 1q-40 6 -40 42q0 21 13.5 35t34.5 14q25 0 41.5 -20t16.5 -53q0 -98 -122 -149v31zM90 342q36 20 56 43t20 42q0 9 -3 11t-13 3q-3 1 -5 1q-40 6 -40 42q0 20 14 34.5t35 14.5q25 0 41.5 -20t16.5 -53
q0 -98 -122 -149v31z" />
    <glyph glyph-name="quotedblbase" unicode="&#x201e;" horiz-adv-x="492" 
d="M281 -99q36 20 56 43t20 42q0 9 -2.5 11t-13.5 3q-2 1 -4 1q-40 6 -40 43q0 21 13.5 35t34.5 14q25 0 41.5 -20.5t16.5 -53.5q0 -98 -122 -149v31zM90 -99q36 20 56 43t20 42q0 9 -3 11t-13 3q-3 1 -5 1q-40 6 -40 43q0 20 14 34.5t35 14.5q25 0 41.5 -20.5t16.5 -53.5
q0 -98 -122 -149v31z" />
    <glyph glyph-name="dagger" unicode="&#x2020;" 
d="M189 -101v12q14 4 19 9.5t6 19.5l21 389l-101 -10q-23 -2 -33.5 -8.5t-14.5 -23.5h-11v113h11q5 -17 15.5 -23t34.5 -8l99 -10l-19 125q-2 11 -3 14.5t-6 8.5t-15 7v11h116v-11q-10 -2 -15 -7t-6 -8.5t-3 -14.5l-19 -125l99 10q24 2 34.5 8t15.5 23h11v-113h-11
q-4 17 -14.5 23.5t-33.5 8.5l-101 10l21 -389q1 -14 6 -19.5t19 -9.5v-12h-122z" />
    <glyph glyph-name="daggerdbl" unicode="&#x2021;" 
d="M214 214l21 120l-101 -10q-24 -2 -34 -8t-14 -23h-11v113h11q5 -17 15.5 -23.5t34.5 -8.5l99 -9l-19 119q-2 9 -2.5 12t-3 7.5t-6.5 6.5t-12 4v11h116v-11q-10 -2 -15 -6.5t-6 -8t-3 -15.5l-19 -119l99 9q24 2 34.5 8.5t15.5 23.5h11v-113h-11q-4 17 -14 23t-34 8
l-101 10l21 -120l-21 -120l101 10q24 2 34 8t14 23h11v-113h-11q-5 17 -15.5 23.5t-34.5 8.5l-99 9l19 -119q2 -11 3 -15t6 -8t15 -6v-12h-116v12q15 3 18 8.5t6 20.5l19 119l-99 -9q-24 -2 -34.5 -8.5t-15.5 -23.5h-11v113h11q4 -17 14 -23t34 -8l101 -10z" />
    <glyph glyph-name="bullet" unicode="&#x2022;" horiz-adv-x="590" 
d="M150 372q0 60 42.5 102t102.5 42q59 0 101.5 -42t42.5 -102q0 -59 -42.5 -102t-102.5 -43t-102 42.5t-42 102.5z" />
    <glyph glyph-name="ellipsis" unicode="&#x2026;" horiz-adv-x="1000" 
d="M118 39q0 20 14.5 34t34.5 14t34 -13.5t14 -34.5q0 -20 -14 -34t-34 -14t-34.5 14.5t-14.5 33.5zM451 39q0 20 14.5 34t34.5 14t34 -13.5t14 -34.5q0 -20 -14 -34t-34 -14t-34.5 14.5t-14.5 33.5zM785 39q0 20 14.5 34t34.5 14t34 -13.5t14 -34.5q0 -20 -14 -34t-34 -14
t-34.5 14.5t-14.5 33.5z" />
    <glyph glyph-name="perthousand" unicode="&#x2030;" horiz-adv-x="1213" 
d="M176 -9l423 543h59l-422 -543h-60zM35 370q0 71 46.5 117t119.5 46q74 0 120 -46t46 -117q0 -70 -46 -116t-120 -46t-120 46t-46 116zM100 372q0 -50 28 -81t72 -31q45 0 73 31t28 81q0 49 -28.5 80t-72.5 31t-72 -31t-28 -80zM467 153q0 71 46.5 117t119.5 46
q74 0 120 -46t46 -117q0 -70 -46 -116t-120 -46t-120 46t-46 116zM532 154q0 -50 28 -80.5t73 -30.5t73 30.5t28 80.5q0 49 -28.5 80.5t-72.5 31.5t-72.5 -31.5t-28.5 -80.5zM846 153q0 71 46.5 117t119.5 46q74 0 120 -46t46 -117q0 -70 -46 -116t-120 -46t-120 46t-46 116
zM911 154q0 -50 28 -80.5t72 -30.5q45 0 73 30.5t28 80.5q0 49 -28.5 80.5t-72.5 31.5t-72 -31t-28 -81z" />
    <glyph glyph-name="guilsinglleft" unicode="&#x2039;" horiz-adv-x="324" 
d="M259 114h-65l-118 148l118 148h64l-119 -147z" />
    <glyph glyph-name="guilsinglright" unicode="&#x203a;" horiz-adv-x="324" 
d="M76 114l120 149l-118 147h64l117 -148l-117 -148h-66z" />
    <glyph glyph-name="fraction" unicode="&#x2044;" horiz-adv-x="167" 
d="M-167 -9l442 543h58l-440 -543h-60z" />
    <glyph glyph-name="trademark" unicode="&#x2122;" horiz-adv-x="833" 
d="M339 710v-28h-84v-231h-40v231h-86v28h210zM458 710l81 -206l76 206h57v-259h-35v228l-86 -228h-24l-91 228v-228h-35v259h57z" />
    <glyph glyph-name="minus" unicode="&#x2212;" horiz-adv-x="833" 
d="M709 322v-48h-585v48h585z" />
    <glyph glyph-name="fi" unicode="&#xfb01;" horiz-adv-x="845" 
d="M90 0v12q14 4 18.5 9.5t4.5 19.5v349q0 14 -4.5 19.5t-18.5 9.5v12h351q13 0 19 5t10 19h13v-112h-12q-4 14 -9.5 18.5t-19.5 4.5h-250v-114h158q13 0 19 5t10 19h13v-112h-12q-4 14 -9.5 18.5t-19.5 4.5h-159v-146q0 -14 4.5 -19.5t18.5 -9.5v-12h-125zM732 41
q0 -14 4.5 -19.5t18.5 -9.5v-12h-125v12q14 4 18.5 9.5t4.5 19.5v349q0 14 -4.5 19.5t-18.5 9.5v12h125v-12q-14 -4 -18.5 -9.5t-4.5 -19.5v-349z" />
    <glyph glyph-name="fl" unicode="&#xfb02;" horiz-adv-x="1095" 
d="M90 0v12q14 4 18.5 9.5t4.5 19.5v349q0 14 -4.5 19.5t-18.5 9.5v12h351q13 0 19 5t10 19h13v-112h-12q-4 14 -9.5 18.5t-19.5 4.5h-250v-114h158q13 0 19 5t10 19h13v-112h-12q-4 14 -9.5 18.5t-19.5 4.5h-159v-146q0 -14 4.5 -19.5t18.5 -9.5v-12h-125zM731 66h276
q14 0 19.5 4.5t9.5 18.5h12v-112h-11q-4 14 -9.5 18.5t-19.5 4.5h-379v12q14 4 18.5 9.5t4.5 19.5v349q0 14 -4.5 19.5t-18.5 9.5v12h125v-12q-14 -4 -18.5 -9.5t-4.5 -19.5v-324z" />
    </font>
</defs>
</svg>
